<?xml version="1.0" standalone="no"?>
<!DOCTYPE svg PUBLIC "-//W3C//DTD SVG 1.1//EN" "http://www.w3.org/Graphics/SVG/1.1/DTD/svg11.dtd" >
<svg xmlns="http://www.w3.org/2000/svg">
<metadata>
<json>
<![CDATA[
{
	"fontFamily": "font-wso2",
	"majorVersion": 1,
	"minorVersion": 2,
	"fontURL": "http://wso2-dev-ux.github.io/font-wso2/",
	"description": "WSO2 Products User Interface Icons Set\nFont generated by IcoMoon.",
	"copyright": "2015",
	"designerURL": "http://wso2.com",
	"designer": "WSO2",
	"license": "Apache License, Version 2.0 MIT",
	"licenseURL": "http://wso2.com/licenses",
	"version": "Version 1.2",
	"fontId": "font-wso2",
	"psName": "font-wso2",
	"subFamily": "Regular",
	"fullName": "font-wso2"
}
]]>
</json>
</metadata>
<defs>
<font id="font-wso2" horiz-adv-x="1024">
<font-face units-per-em="1024" ascent="960" descent="-64" />
<missing-glyph horiz-adv-x="1024" />
<glyph unicode="&#x20;" horiz-adv-x="512" d="" />
<glyph unicode="&#xe600;" glyph-name="airplay" data-tags="airplay" d="M1024 805.376v-574.83h-212.626l-72.777 93.55h191.854v387.73h-836.901v-387.73h185.929l-71.241-93.55h-208.238v574.83h1024zM860.891 90.624l-354.011 455.095-346.405-455.095h700.416z" />
<glyph unicode="&#xe601;" glyph-name="api" data-tags="api" d="M0 448c0-28.818 23.406-52.151 52.151-52.151h84.261v104.302h-84.261c-28.745 0-52.151-23.333-52.151-52.151zM0 617.545c0-28.818 23.406-52.151 52.151-52.151h84.261v104.375h-84.261c-28.745 0-52.151-23.406-52.151-52.224zM1024 617.691c0 28.818-23.406 52.078-52.151 52.078h-84.261v-104.229h84.261c28.745-0.073 52.151 23.333 52.151 52.151zM290.231-11.849c0-28.818 23.406-52.151 52.151-52.151 28.818 0 52.151 23.406 52.151 52.151v84.261h-104.302c0 0 0-84.261 0-84.261zM0 278.455c0-28.818 23.406-52.151 52.151-52.151h84.261v104.229h-84.261c-28.745-0.073-52.151-23.333-52.151-52.078zM459.849-11.849c0-28.745 23.333-52.151 52.151-52.151s52.151 23.406 52.151 52.151v84.261h-104.302c0 0 0-84.261 0-84.261zM733.769 907.849c0 28.745-23.406 52.151-52.224 52.151s-52.005-23.406-52.005-52.151v-84.261h104.229v84.261zM564.151 907.849c0 28.745-23.333 52.151-52.151 52.151s-52.151-23.406-52.151-52.151v-84.261h104.375c-0.073 0-0.073 84.261-0.073 84.261zM394.533 907.849c0 28.745-23.406 52.151-52.224 52.151s-52.078-23.406-52.078-52.151v-84.261h104.229v84.261zM971.849 330.459h-84.261v-104.229h84.261c28.818 0 52.151 23.406 52.151 52.151 0 28.818-23.406 52.078-52.151 52.078zM783.141 773.486h-542.208c-29.989 0-54.345-24.357-54.345-54.345v-542.208c0-29.989 24.357-54.345 54.345-54.345h542.208c29.989 0 54.345 24.357 54.345 54.345v542.135c0 30.062-24.357 54.418-54.345 54.418zM415.013 345.454l-17.262 57.271h-64.219l-15.579-57.271h-52.297l68.169 223.159h65.902l69.559-223.159h-54.272zM639.195 447.781c-17.262-15.872-43.081-23.552-72.85-23.552-6.656 0-12.581 0.366-17.262 1.317v-80.091h-49.957v220.16c15.579 2.633 37.376 4.608 68.169 4.608 31.159 0 53.687-5.925 68.535-18.213 14.263-10.898 23.552-29.403 23.552-51.273 0-22.162-7.022-40.741-20.187-52.955zM742.181 345.454h-50.322v223.159h50.322v-223.159zM971.849 500.151h-84.261v-104.375h84.261c28.745 0.073 52.151 23.406 52.151 52.224s-23.406 52.151-52.151 52.151zM569.929 531.895c-10.24 0-17.189-0.658-20.846-1.682v-65.902c4.315-0.951 9.582-1.317 16.896-1.317 26.843 0 43.374 13.605 43.374 36.059 0 20.553-13.897 32.841-39.424 32.841zM629.614-11.849h-0.073c0-28.818 23.333-52.151 52.151-52.151s52.151 23.406 52.151 52.151v84.261h-104.229v-84.261zM365.349 530.871h-1.024c-2.999-13.239-6.656-30.135-9.947-43.008l-13.531-47.397h49.298l-13.897 47.323c-3.657 13.312-7.607 30.135-10.898 43.081z" />
<glyph unicode="&#xe602;" glyph-name="apn" data-tags="apn" d="M597.358 246.857l-298.642-225.499-298.715 225.499v97.499l256-207.214v737.499h85.358v-737.499l256 207.214v-97.499zM1024 551.643l-256 207.214v-737.499h-85.358v737.499l-256-207.214v97.499l298.642 225.499 298.715-225.499v-97.499z" />
<glyph unicode="&#xe603;" glyph-name="vpn" data-tags="vpn" d="M207.36-64l-109.349 334.848h46.738l52.151-164.937c14.409-45.202 26.843-85.943 35.767-125.147h1.024c9.435 38.766 23.333 80.969 38.254 124.635l56.613 165.449h46.226l-119.735-334.848h-47.689zM410.624 266.898c20.919 3.438 48.201 6.363 82.944 6.363 42.789 0 74.021-9.947 93.915-27.794 18.359-15.872 29.257-40.229 29.257-69.998 0-30.281-8.923-54.126-25.819-71.534-22.821-24.43-60.123-36.791-102.254-36.791-12.946 0-24.869 0.512-34.816 2.999v-134.144h-43.227v330.898zM453.851 105.326c9.435-2.487 21.358-3.438 35.767-3.438 52.151 0 83.968 25.381 83.968 71.534 0 44.178-31.305 65.609-78.994 65.609-18.871 0-33.28-1.463-40.741-3.511v-130.194zM674.597-64v334.848h47.177l107.301-169.472c24.869-39.205 44.178-74.533 60.050-108.763l1.024 0.512c-3.95 44.617-5.047 85.431-5.047 137.582v140.142h40.741v-334.848h-43.739l-106.277 169.911c-23.333 37.23-45.714 75.483-62.537 111.762l-1.463-0.439c2.487-42.277 3.438-82.505 3.438-138.094v-143.141h-40.667zM692.224 705.17h-65.902v87.845c0 52.736-43.959 96.695-96.695 96.695s-96.622-43.959-96.622-96.695v-87.918h-65.902v87.918c0 92.306 70.29 166.985 162.523 166.985s162.597-74.679 162.597-162.597v-92.233zM762.514 379.977v259.218c0 17.554-17.554 35.182-35.182 35.182h-395.41c-21.943 0-35.182-13.166-35.182-35.182v-259.218c0-17.554 13.166-35.182 35.182-35.182h395.483c21.943 0 35.109 17.627 35.109 35.182zM551.643 529.335v-92.306h-43.959v92.306c-8.777 8.777-17.554 21.943-17.554 35.182 0 21.943 17.554 39.57 39.57 39.57s39.57-17.554 39.57-39.57c-0.073-13.166-8.85-26.331-17.627-35.182z" />
<glyph unicode="&#xe604;" glyph-name="apple" data-tags="apple" horiz-adv-x="878" d="M263.314 718.629c80.457 0 131.657-43.886 197.486-43.886s102.4 43.886 197.486 43.886c73.143 0 146.286-36.571 197.486-102.4-175.543-95.086-146.286-343.771 29.257-409.6-21.943-51.2-36.571-80.457-65.829-124.343-43.886-65.829-102.4-146.286-182.857-146.286-65.829 0-87.771 43.886-175.543 43.886-95.086 0-109.714-43.886-182.857-43.886s-131.657 73.143-175.543 138.971c-117.029 182.857-131.657 402.286-58.514 519.314 51.2 80.457 138.971 124.343 219.429 124.343zM629.029 960c14.629-65.829-14.629-124.343-43.886-168.229-36.571-43.886-102.4-80.457-160.914-80.457-7.314 58.514 14.629 124.343 51.2 160.914 36.571 51.2 102.4 80.457 153.6 87.771z" />
<glyph unicode="&#xe605;" glyph-name="windows" data-tags="windows" horiz-adv-x="1075" d="M497.371 418.743h585.143v-482.743l-577.829 80.457-7.314 402.286zM7.314 426.057h438.857v-402.286l-438.857 58.514v343.771zM446.171 872.229v-402.286h-438.857v351.086l438.857 51.2zM1075.2 960v-482.743l-577.829-7.314v409.6l577.829 80.457z" />
<glyph unicode="&#xe606;" glyph-name="android" data-tags="android" horiz-adv-x="848" d="M146.286 645.486h563.2v-475.429c0-21.943-14.629-36.571-36.571-36.571h-73.143v-146.286c0-21.943-29.257-51.2-58.514-51.2s-58.514 29.257-58.514 58.514v146.286h-109.714v-146.286c0-29.257-29.257-58.514-58.514-58.514s-58.514 29.257-58.514 58.514v146.286h-73.143c-21.943 0-36.571 14.629-36.571 36.571v468.114zM789.943 660.114c29.257 0 58.514-29.257 58.514-58.514v-263.314c0-29.257-29.257-58.514-58.514-58.514s-58.514 29.257-58.514 58.514v263.314c0 36.571 29.257 58.514 58.514 58.514zM58.514 660.114c29.257 0 58.514-29.257 58.514-58.514v-263.314c0-29.257-29.257-58.514-58.514-58.514s-58.514 29.257-58.514 58.514v263.314c0 36.571 21.943 58.514 58.514 58.514zM548.571 828.343c-21.943 0-36.571-14.629-36.571-29.257s14.629-36.571 36.571-36.571 36.571 14.629 36.571 36.571-21.943 29.257-36.571 29.257zM299.886 828.343c-14.629 0-29.257-14.629-29.257-29.257s14.629-36.571 36.571-36.571c21.943 0 36.571 14.629 36.571 36.571s-21.943 29.257-43.886 29.257zM248.686 960c0 0 0 0 0 0l51.2-65.829c36.571 14.629 73.143 21.943 124.343 21.943s87.771-7.314 124.343-21.943l43.886 65.829c0 0 7.314 0 7.314 0s7.314-7.314 0-7.314l-43.886-65.829c138.971-58.514 138.971-204.8 138.971-204.8h-548.571c0 0 7.314 146.286 138.971 212.114l-43.886 58.514c0 0 0 0 7.314 7.314 0 0 0 0 0 0z" />
<glyph unicode="&#xe607;" glyph-name="wifi" data-tags="wifi" horiz-adv-x="1324" d="M841.143 192c-102.4 95.086-241.371 109.714-358.4 0-7.314-7.314-7.314-7.314 0-21.943l175.543-175.543 175.543 168.229c21.943 21.943 14.629 29.257 7.314 29.257zM1097.143 411.429c-241.371 241.371-636.343 241.371-877.714 0 0-14.629 0-21.943 0-29.257l124.343-124.343c7.314-7.314 21.943-7.314 21.943 0 160.914 160.914 424.229 160.914 585.143 0 7.314-7.314 14.629-7.314 21.943 0l124.343 124.343c14.629 7.314 14.629 21.943 0 29.257v0zM1323.886 623.543v0c-365.714 365.714-958.171 358.4-1316.571 0-7.314-7.314-7.314-14.629 0-21.943l131.657-131.657c7.314-7.314 14.629-7.314 21.943 0 277.943 277.943 738.743 277.943 1016.686 0 7.314-7.314 14.629-7.314 21.943 0l131.657 131.657c-7.314 7.314-7.314 14.629-7.314 21.943z" />
<glyph unicode="&#xe608;" glyph-name="application" data-tags="application" horiz-adv-x="914" d="M914.883 727.716c0 7.774-2.861 13.507-7.437 16.595 0.017 0.008 0.033 0.016 0.049 0.024-2.683 1.726-3.707 2.527-4.846 3.098-115.144 57.689-290.907 144.476-406.377 201.506-30.986 15.304-63.702 14.49-94.794-0.968-125.742-62.515-251.248-125.506-376.874-188.254-6.522-3.258-14.146-7.123-12.416-14.832 1.181-5.263 7.238-10.898 12.527-13.558 135.27-68.023 270.769-135.589 406.121-203.449 36.367-18.233 72.275-17.954 108.54 0.094 92.27 45.921 184.63 91.662 276.962 137.458 19.635 9.739 39.305 19.408 60.428 29.835 0-5.384 0-9.264 0-13.145 0.001-149.323-0.541-298.65 0.366-447.968 0.239-39.448-17.33-65.090-51.099-81.979-105.318-52.671-210.635-105.341-315.965-157.989-3.071-1.535-6.268-2.819-10.339-4.636 0 5.274 0 8.935 0 12.595 0 124.269 0.073 248.538-0.134 372.807-0.018 10.614-0.777 21.478-3.114 31.79-8.598 37.942-33.168 63.201-66.944 80.141-104.038 52.179-208.211 104.092-312.346 156.077-31.941 15.945-63.906 31.843-95.907 47.665-13.876 6.861-21.735 1.846-21.963-13.801-0.044-3.006-0.010-6.013-0.010-9.019-0.001-138.634 0.506-277.27-0.258-415.899-0.293-53.217 24.276-89.659 70.171-112.832 110.746-55.916 279.119-141.384 390.059-196.914 2.729-1.366 5.549-2.606 8.861-4.097 4.416-2.806 10.552-2.86 17.341 0.532 44.483 22.22 88.94 44.491 133.417 66.724 75.222 37.601 150.611 74.87 225.616 112.898 46.105 23.375 71.020 59.51 70.711 113.428-0.945 165.352-0.343 330.714-0.348 496.072zM246.403 93.773c-52.215 26.080-104.381 52.26-156.736 78.057-35.558 17.521-52.933 44.586-52.601 85.311 1.001 122.925 0.363 245.863 0.364 368.796 0 3.801 0 7.6 0 12.524 3.682-1.494 5.537-2.107 7.267-2.97 122.977-61.298 246.016-122.474 368.865-184.030 31.715-15.891 47.898-41.393 47.771-77.934-0.451-129.491-0.244-258.985-0.203-388.477-53.935 26.662-162.245 82.509-214.728 108.722zM520.375 561.802c-23.435-11.64-46.544-12.058-70.101-0.26-118.676 59.44-237.43 118.723-356.144 178.088-3.138 1.569-6.118 3.454-10.176 5.764 2.741 1.665 4.311 2.776 6.012 3.628 109.181 54.706 218.293 109.551 327.709 163.784 9.227 4.574 20.562 7.164 30.796 6.84 11.948-0.377 24.829-2.809 35.469-8.067 103.698-51.237 267.347-131.772 371.253-183.687-111.613-55.349-223.24-110.671-334.818-166.091z" />
<glyph unicode="&#xe609;" glyph-name="applications" data-tags="applications" d="M490.954 372.21c0 4.176-1.537 7.255-3.994 8.913 0.009 0.004 0.018 0.009 0.026 0.013-1.441 0.927-1.991 1.357-2.603 1.663-61.845 30.986-156.249 77.6-218.269 108.232-16.643 8.22-34.215 7.782-50.915-0.52-67.537-33.578-134.948-67.411-202.423-101.113-3.503-1.75-7.597-3.826-6.668-7.966 0.634-2.827 3.888-5.854 6.728-7.282 72.655-36.536 145.433-72.826 218.132-109.275 19.534-9.793 38.819-9.644 58.298 0.050 49.559 24.665 99.167 49.232 148.759 73.83 10.546 5.231 21.111 10.424 32.457 16.025 0-2.892 0-4.976 0-7.060 0-80.203-0.29-160.408 0.197-240.609 0.129-21.188-9.308-34.96-27.446-44.031-56.567-28.29-113.134-56.58-169.708-84.857-1.649-0.824-3.367-1.514-5.554-2.49 0 2.833 0 4.799 0 6.765 0 66.747 0.039 133.492-0.072 200.239-0.010 5.701-0.417 11.536-1.673 17.074-4.618 20.379-17.815 33.946-35.956 43.045-55.88 28.025-111.832 55.908-167.764 83.83-17.156 8.564-34.324 17.103-51.512 25.601-7.453 3.685-11.674 0.992-11.797-7.413-0.023-1.614-0.006-3.23-0.006-4.844-0.001-74.462 0.272-148.925-0.139-223.384-0.157-28.583 13.039-48.157 37.69-60.603 59.483-30.033 149.918-75.938 209.505-105.765 1.466-0.734 2.981-1.4 4.759-2.201 2.372-1.507 5.667-1.536 9.314 0.285 23.892 11.935 47.771 23.897 71.66 35.838 40.402 20.196 80.895 40.214 121.181 60.639 24.763 12.555 38.145 31.963 37.979 60.923-0.506 88.814-0.183 177.632-0.186 266.447zM131.907 31.713c-28.045 14.008-56.065 28.069-84.185 41.925-19.099 9.411-28.431 23.948-28.252 45.821 0.538 66.024 0.195 132.056 0.195 198.084 0 2.041 0 4.082 0 6.727 1.978-0.802 2.974-1.132 3.904-1.595 66.052-32.924 132.138-65.782 198.121-98.845 17.035-8.535 25.727-22.233 25.659-41.859-0.242-69.551-0.131-139.104-0.109-208.655-28.97 14.321-87.144 44.317-115.333 58.397zM279.060 283.096c-12.587-6.252-24.999-6.476-37.652-0.139-63.743 31.926-127.527 63.767-191.289 95.653-1.685 0.843-3.286 1.855-5.466 3.095 1.472 0.894 2.316 1.491 3.229 1.949 58.642 29.383 117.248 58.841 176.016 87.97 4.956 2.457 11.044 3.847 16.541 3.674 6.418-0.203 13.336-1.509 19.051-4.333 55.697-27.52 143.595-70.776 199.404-98.66-59.949-29.729-119.905-59.442-179.835-89.209zM1022.863 372.21c0 4.176-1.537 7.255-3.994 8.913 0.009 0.004 0.018 0.009 0.026 0.013-1.441 0.927-1.991 1.358-2.602 1.664-61.845 30.986-156.249 77.599-218.269 108.231-16.643 8.22-34.215 7.783-50.915-0.52-67.538-33.578-134.949-67.411-202.424-101.113-3.504-1.75-7.598-3.826-6.669-7.966 0.634-2.827 3.888-5.854 6.728-7.282 72.655-36.536 145.434-72.826 218.132-109.275 19.534-9.793 38.82-9.643 58.298 0.050 49.559 24.665 99.167 49.232 148.759 73.83 10.546 5.231 21.111 10.424 32.456 16.025 0-2.892 0-4.976 0-7.060 0.001-80.203-0.29-160.408 0.197-240.609 0.129-21.188-9.308-34.96-27.446-44.031-56.567-28.29-113.134-56.58-169.708-84.857-1.649-0.824-3.367-1.514-5.554-2.49 0 2.833 0 4.799 0 6.765 0 66.747 0.039 133.492-0.072 200.239-0.010 5.701-0.417 11.536-1.672 17.074-4.618 20.379-17.815 33.946-35.956 43.045-55.88 28.025-111.831 55.908-167.763 83.83-17.156 8.564-34.324 17.103-51.513 25.601-7.453 3.685-11.674 0.992-11.796-7.413-0.023-1.614-0.005-3.229-0.005-4.844-0.001-74.462 0.272-148.925-0.139-223.384-0.157-28.583 13.039-48.157 37.69-60.603 59.483-30.033 149.918-75.938 209.505-105.765 1.466-0.734 2.981-1.4 4.759-2.201 2.372-1.507 5.667-1.536 9.314 0.285 23.892 11.935 47.771 23.897 71.66 35.838 40.402 20.196 80.895 40.214 121.181 60.639 24.763 12.555 38.145 31.963 37.979 60.923-0.508 88.814-0.184 177.632-0.187 266.447zM663.815 31.713c-28.045 14.008-56.065 28.069-84.185 41.925-19.099 9.411-28.431 23.948-28.252 45.821 0.538 66.024 0.195 132.056 0.195 198.084 0 2.041 0 4.082 0 6.727 1.978-0.802 2.974-1.131 3.904-1.595 66.052-32.924 132.138-65.782 198.121-98.845 17.035-8.535 25.727-22.233 25.659-41.859-0.242-69.551-0.131-139.104-0.109-208.655-28.97 14.32-87.144 44.316-115.333 58.396zM810.968 283.096c-12.587-6.252-24.999-6.477-37.652-0.14-63.742 31.927-127.526 63.767-191.288 95.654-1.685 0.843-3.286 1.855-5.466 3.095 1.472 0.894 2.316 1.491 3.229 1.949 58.642 29.383 117.248 58.841 176.016 87.97 4.956 2.457 11.044 3.847 16.541 3.674 6.418-0.203 13.336-1.509 19.051-4.333 55.697-27.52 143.595-70.776 199.404-98.66-59.949-29.729-119.905-59.442-179.836-89.209zM744.846 829.232c0 4.176-1.537 7.255-3.994 8.913 0.009 0.004 0.018 0.009 0.026 0.013-1.441 0.927-1.991 1.358-2.602 1.664-61.846 30.986-156.249 77.599-218.27 108.231-16.643 8.22-34.215 7.783-50.915-0.52-67.537-33.577-134.948-67.41-202.423-101.113-3.503-1.75-7.597-3.825-6.668-7.966 0.634-2.827 3.888-5.854 6.728-7.282 72.655-36.536 145.433-72.826 218.132-109.275 19.534-9.793 38.819-9.643 58.298 0.050 49.559 24.665 99.167 49.232 148.759 73.83 10.546 5.231 21.111 10.424 32.457 16.025 0-2.892 0-4.976 0-7.060 0.001-80.203-0.29-160.408 0.197-240.609 0.128-21.188-9.308-34.961-27.446-44.032-56.567-28.289-113.134-56.58-169.708-84.857-1.649-0.824-3.367-1.514-5.554-2.49 0 2.833 0 4.799 0 6.765 0 66.747 0.039 133.492-0.072 200.239-0.010 5.701-0.417 11.536-1.672 17.074-4.618 20.379-17.815 33.946-35.956 43.045-55.88 28.026-111.833 55.909-167.765 83.831-17.156 8.564-34.324 17.103-51.512 25.601-7.453 3.686-11.674 0.992-11.796-7.412-0.024-1.615-0.006-3.23-0.006-4.844-0.001-74.462 0.272-148.925-0.139-223.384-0.157-28.583 13.039-48.157 37.69-60.603 59.483-30.033 149.918-75.938 209.505-105.765 1.466-0.734 2.981-1.4 4.759-2.201 2.372-1.507 5.667-1.536 9.314 0.285 23.892 11.935 47.771 23.897 71.66 35.839 40.402 20.196 80.895 40.214 121.181 60.639 24.763 12.555 38.145 31.963 37.979 60.923-0.507 88.813-0.184 177.63-0.187 266.446zM385.799 488.735c-28.045 14.008-56.065 28.069-84.185 41.925-19.099 9.411-28.431 23.948-28.252 45.821 0.538 66.024 0.195 132.056 0.195 198.084 0 2.041 0 4.082 0 6.727 1.977-0.802 2.973-1.131 3.903-1.595 66.052-32.924 132.138-65.782 198.121-98.845 17.035-8.535 25.727-22.233 25.659-41.859-0.243-69.551-0.131-139.104-0.109-208.655-28.969 14.321-87.143 44.317-115.332 58.396zM532.952 740.119c-12.587-6.252-24.999-6.477-37.652-0.14-63.743 31.926-127.527 63.767-191.289 95.653-1.685 0.843-3.286 1.855-5.465 3.095 1.472 0.894 2.316 1.491 3.229 1.949 58.642 29.383 117.248 58.841 176.016 87.97 4.956 2.457 11.044 3.847 16.541 3.674 6.417-0.203 13.335-1.509 19.050-4.332 55.697-27.52 143.595-70.776 199.404-98.66-59.949-29.729-119.905-59.443-179.834-89.209z" />
<glyph unicode="&#xe60a;" glyph-name="battery" data-tags="battery" horiz-adv-x="1322" d="M247.881 571.904h330.459l247.881-247.881h-578.341v247.881zM165.23 654.555v-413.111h908.873v413.111h-908.873zM0 819.785h1239.333v-247.881h82.651v-330.533h-82.651v-165.23h-1239.333v743.643z" />
<glyph unicode="&#xe60b;" glyph-name="notification" data-tags="notification" d="M555.886 930.743c51.2-7.314 102.4-14.629 146.286-43.886 73.143-43.886 117.029-124.343 124.343-212.114 21.943-109.714-7.314-226.743 29.257-336.457 21.943-65.829 73.143-124.343 131.657-153.6 7.314-7.314 21.943-7.314 21.943-14.629s7.314-21.943 0-29.257c-7.314-7.314-14.629-7.314-21.943-7.314-321.829 0-636.343 0-958.171 0-14.629 0-36.571 0-43.886 21.943 0 14.629 21.943 29.257 36.571 36.571 29.257 21.943 58.514 43.886 87.771 73.143 43.886 58.514 58.514 124.343 65.829 197.486 7.314 65.829 0 138.971 14.629 204.8 14.629 73.143 43.886 146.286 87.771 190.171 58.514 58.514 146.286 73.143 234.057 73.143 14.629 0 29.257 0 43.886 0zM380.343 74.971c14.629-73.143 65.829-109.714 131.657-109.714s109.714 36.571 131.657 109.714c-43.886 0-87.771 0-131.657 0s-87.771 0-131.657 0z" />
<glyph unicode="&#xe60c;" glyph-name="blank-document" data-tags="blank-document" horiz-adv-x="779" d="M551.058 959.634h-39.131l-0.219 0.146v-0.146h-458.971c-29.111 0-52.736-23.625-52.736-52.736v-917.943c0-29.111 23.625-52.736 52.736-52.736h673.061c29.111 0 52.736 23.625 52.736 52.736v752.567l-227.474 218.112zM725.797-33.207h-673.061c-12.215 0-22.162 9.947-22.162 22.162v917.943c0 12.215 9.947 22.162 22.162 22.162h458.971v-174.592c0-27.794 22.601-50.395 50.395-50.395h185.929v-715.118c-0.073-12.215-9.947-22.162-22.235-22.162z" />
<glyph unicode="&#xe60d;" glyph-name="bookmark" data-tags="bookmark" d="M877.714 960c7.314-7.314 7.314-14.629 7.314-21.943 0-329.143 0-650.971 0-980.114 0-7.314 0-14.629-7.314-21.943s-14.629 0-21.943 7.314c-117.029 73.143-226.743 146.286-343.771 219.429-7.314 7.314-14.629 7.314-21.943 0-109.714-73.143-219.429-146.286-329.143-219.429-7.314 0-7.314-7.314-14.629-7.314s-14.629 7.314-14.629 21.943c0 51.2 0 102.4 0 153.6 0 277.943 0 548.571 0 826.514 0 7.314 0 14.629 7.314 21.943 248.686 0 497.371 0 738.743 0zM650.971 404.114l-14.629 117.029c0 7.314 0 14.629 7.314 14.629l80.457 80.457c7.314 14.629 0 36.571-14.629 36.571l-117.029 14.629c0 0-7.314 7.314-14.629 14.629l-51.2 102.4c-7.314 14.629-29.257 14.629-36.571 0l-43.886-109.714c-7.314 0-14.629-7.314-14.629-7.314l-117.029-14.629c-14.629-7.314-21.943-21.943-14.629-36.571l87.771-80.457c0-7.314 7.314-7.314 7.314-14.629l-21.943-117.029c0-14.629 14.629-29.257 29.257-21.943l102.4 58.514c7.314 0 14.629 0 14.629 0l102.4-51.2c14.629-14.629 36.571 0 29.257 14.629z" />
<glyph unicode="&#xe60e;" glyph-name="bpel" data-tags="bpel" d="M864.329 314.807v86.309h0.219v60.855h-319.561v119.223c90.478 14.629 159.671 92.818 159.671 187.465 0 104.96-85.065 190.098-190.098 190.098-104.96 0-190.098-85.138-190.098-190.098 0-94.647 69.193-172.837 159.671-187.465v-119.296h-324.169v-30.427h-0.293v-116.151h4.169c-92.453-12.727-163.84-91.941-163.84-187.977 0-104.96 85.138-190.098 190.098-190.098s190.098 85.138 190.098 190.098c0 96.037-71.314 175.25-163.913 188.050h4.169v85.723h582.949v-86.309c-90.478-14.629-159.671-92.891-159.671-187.465 0-104.96 85.138-190.098 190.098-190.098 105.033 0 190.098 85.138 190.098 190.098 0.073 94.647-69.12 172.837-159.598 187.465zM337.262 126.683c0-81.701-66.194-147.968-147.968-147.968-81.701 0-147.968 66.267-147.968 147.968s66.267 147.968 147.968 147.968c81.774 0 147.968-66.267 147.968-147.968zM366.665 769.39c0 81.701 66.267 147.968 147.968 147.968 81.774 0 147.968-66.267 147.968-147.968s-66.194-147.968-147.968-147.968c-81.701-0.073-147.968 66.194-147.968 147.968zM835.511-21.285c-81.701 0-147.968 66.267-147.968 147.968s66.267 147.968 147.968 147.968c81.774 0 147.968-66.267 147.968-147.968s-66.194-147.968-147.968-147.968z" />
<glyph unicode="&#xe60f;" glyph-name="bpmn" data-tags="bpmn" d="M880.055 960c-79.506 0-143.945-64.439-143.945-144.018 0-72.265 53.248-131.877 122.661-142.19v-204.434h-117.175l-218.405 218.258c-6.217 6.217-16.238 6.217-22.382 0l-220.087-220.087h-158.062v-245.321c-69.413-10.313-122.661-69.998-122.661-142.263 0-79.506 64.439-143.945 143.945-143.945s143.945 64.439 143.945 143.945c0 72.265-53.248 131.95-122.661 142.263v202.679h119.003l216.503-216.503c6.144-6.144 16.165-6.144 22.382 0l218.331 218.258h159.817v247.15c69.486 10.313 122.734 69.925 122.734 142.19 0 79.579-64.439 144.018-143.945 144.018zM261.778 78.629c0-65.317-52.955-118.199-118.199-118.199-65.317 0-118.199 52.882-118.199 118.199s52.955 118.199 118.199 118.199c65.243 0.073 118.199-52.882 118.199-118.199zM881.81 697.783c-65.317 0-118.199 52.955-118.199 118.199s52.955 118.199 118.199 118.199c65.317 0 118.199-52.955 118.199-118.199s-52.882-118.199-118.199-118.199z" />
<glyph unicode="&#xe610;" glyph-name="broken-link" data-tags="broken-link" d="M958.171 894.171c29.257-29.257 51.2-73.143 51.2-117.029s-14.629-80.457-51.2-117.029l-197.486-197.486c-36.571-29.257-87.771-51.2-138.971-43.886v21.943c51.2-7.314 95.086 7.314 124.343 43.886l197.486 197.486c58.514 58.514 58.514 146.286 0 204.8s-146.286 58.514-204.8 0l-190.171-204.8c-29.257-21.943-43.886-51.2-43.886-87.771h-21.943c7.314 36.571 21.943 73.143 43.886 95.086l197.486 197.486c65.829 73.143 168.229 73.143 234.057 7.314zM782.629 382.171c0-14.629-7.314-29.257-7.314-36.571 51.2-14.629 102.4-29.257 153.6-43.886 0 14.629 7.314 21.943 7.314 36.571-51.2 14.629-102.4 29.257-153.6 43.886zM724.114 265.143c-7.314-7.314-14.629-14.629-21.943-21.943 43.886-43.886 80.457-80.457 124.343-124.343 7.314 7.314 14.629 14.629 29.257 21.943-43.886 43.886-87.771 80.457-131.657 124.343zM775.314 455.314l197.486 197.486c73.143 73.143 73.143 182.857 0 256s-182.857 73.143-256 0l-197.486-197.486c-29.257-29.257-51.2-65.829-51.2-109.714h21.943c7.314 36.571 21.943 73.143 43.886 95.086l197.486 197.486c65.829 65.829 168.229 65.829 226.743 0 29.257-29.257 51.2-73.143 51.2-117.029s-14.629-80.457-51.2-117.029l-197.486-197.486c-36.571-29.257-87.771-51.2-138.971-43.886v-21.943c58.514 0 109.714 14.629 153.6 58.514zM621.714 192c-14.629 0-21.943-7.314-29.257-7.314s-7.314-7.314-7.314-7.314c14.629-43.886 21.943-95.086 36.571-138.971 0 0 7.314-7.314 7.314-7.314 7.314 0 21.943 7.314 29.257 7.314-7.314 51.2-21.943 102.4-36.571 153.6zM519.314 316.343c0-36.571-14.629-80.457-43.886-102.4l-197.486-197.486c-58.514-58.514-146.286-58.514-204.8 0s-58.514 146.286 0 204.8l197.486 197.486c21.943 14.629 43.886 29.257 73.143 36.571v21.943c-29.257-14.629-58.514-29.257-80.457-51.2l-197.486-190.171c-29.257-29.257-51.2-73.143-51.2-117.029s14.629-80.457 51.2-117.029c65.829-65.829 168.229-65.829 226.743 0l197.486 197.486c29.257 29.257 51.2 73.143 51.2 117.029h-21.943zM380.343 879.543c-14.629 0-29.257-7.314-36.571-7.314 14.629-51.2 29.257-102.4 43.886-153.6 14.629 0 21.943 7.314 36.571 7.314-14.629 51.2-29.257 102.4-43.886 153.6zM182.857 791.771c-7.314-7.314-14.629-21.943-21.943-29.257 36.571-36.571 73.143-73.143 109.714-109.714 7.314 7.314 21.943 14.629 29.257 21.943-43.886 43.886-80.457 80.457-117.029 117.029zM80.457 608.914c-7.314-14.629-7.314-29.257-14.629-36.571 51.2-14.629 102.4-29.257 153.6-43.886 0 14.629 7.314 21.943 7.314 36.571-43.886 14.629-95.086 29.257-146.286 43.886zM248.686 440.686l-197.486-197.486c-73.143-73.143-73.143-182.857 0-256s182.857-73.143 256 0l197.486 197.486c36.571 36.571 51.2 80.457 51.2 131.657h-21.943c0-43.886-14.629-87.771-51.2-117.029l-197.486-197.486c-65.829-65.829-168.229-65.829-226.743 0-29.257 29.257-51.2 73.143-51.2 117.029s14.629 80.457 51.2 117.029l197.486 197.486c29.257 14.629 58.514 29.257 87.771 36.571v21.943c-36.571-7.314-65.829-21.943-95.086-51.2z" />
<glyph unicode="&#xe611;" glyph-name="bug" data-tags="bug" d="M512-20.114c-43.886 0-87.771 14.629-124.343 43.886-73.143 51.2-109.714 124.343-131.657 204.8 0 7.314-7.314 14.629-7.314 21.943 0 0 0 0-7.314 0-36.571-14.629-65.829-29.257-95.086-43.886-7.314 0-7.314-14.629-7.314-21.943-14.629-73.143-21.943-146.286-36.571-219.429-14.629-14.629-29.257-29.257-43.886-29.257-21.943 0-29.257 14.629-29.257 43.886 14.629 87.771 29.257 168.229 43.886 256 0 7.314 7.314 14.629 21.943 21.943 36.571 14.629 73.143 36.571 117.029 51.2 14.629 7.314 29.257 14.629 21.943 36.571 0 14.629 0 36.571 0 51.2s-7.314 21.943-21.943 29.257c-36.571 7.314-80.457 21.943-117.029 36.571-7.314 0-21.943 7.314-21.943 21.943-21.943 51.2-36.571 109.714-58.514 168.229-7.314 21.943 0 43.886 21.943 43.886 21.943 14.629 36.571 0 43.886-21.943 14.629-43.886 29.257-95.086 43.886-138.971 0-14.629 7.314-21.943 21.943-21.943 29.257-7.314 58.514-14.629 87.771-21.943 0 0 7.314 0 7.314 7.314 0 0 0 7.314 0 7.314s0 7.314 7.314 7.314c14.629 0 21.943 0 29.257 0 65.829 0 124.343 0 190.171 0v0c7.314 0 14.629 0 14.629 0 7.314 0 14.629 0 21.943 0s7.314 0 14.629 0 7.314 0 14.629 0 14.629 0 21.943 0c7.314 0 14.629 0 14.629 0v0c65.829 0 124.343 0 190.171 0 7.314 0 21.943 0 29.257 0 0 0 0 0 7.314-7.314 0 0 0-7.314 0-7.314s0-7.314 7.314-7.314c29.257 7.314 58.514 14.629 87.771 21.943 14.629 0 21.943 7.314 21.943 21.943 14.629 43.886 29.257 95.086 43.886 138.971 7.314 21.943 21.943 36.571 43.886 29.257s29.257-21.943 21.943-43.886c-36.571-65.829-51.2-124.343-73.143-175.543 0-7.314-14.629-21.943-21.943-21.943-36.571-14.629-80.457-21.943-117.029-36.571-14.629-7.314-21.943-14.629-21.943-29.257s0-36.571 0-51.2c0-21.943 7.314-29.257 21.943-36.571 36.571-14.629 80.457-36.571 117.029-51.2 7.314-7.314 14.629-14.629 21.943-21.943 14.629-87.771 29.257-168.229 43.886-256 7.314-29.257-7.314-43.886-29.257-43.886-14.629 0-29.257 14.629-36.571 36.571-14.629 73.143-21.943 146.286-36.571 219.429 0 7.314-7.314 14.629-7.314 21.943-29.257 14.629-65.829 29.257-95.086 43.886 0 0-7.314 0-7.314 0 0-7.314-7.314-14.629-7.314-21.943-21.943-80.457-65.829-153.6-131.657-204.8-43.886-36.571-87.771-51.2-131.657-51.2v0zM190.171 908.8c87.771-21.943 146.286-80.457 168.229-168.229 7.314-21.943 7.314-29.257-7.314-43.886-36.571-43.886-51.2-95.086-51.2-146.286 138.971 0 277.943 0 416.914 0 7.314 43.886-14.629 102.4-43.886 146.286-14.629 14.629-14.629 21.943-14.629 36.571 29.257 87.771 87.771 146.286 175.543 175.543 14.629 7.314 29.257 14.629 29.257 36.571-7.314 14.629-21.943 14.629-36.571 14.629-102.4-36.571-168.229-95.086-204.8-190.171 0-7.314-7.314-14.629-7.314-21.943-65.829 36.571-131.657 36.571-204.8 0-7.314 7.314-7.314 14.629-7.314 29.257-36.571 95.086-109.714 153.6-204.8 182.857-21.943 7.314-36.571 0-36.571-21.943s14.629-21.943 29.257-29.257z" />
<glyph unicode="&#xe612;" glyph-name="calendar" data-tags="calendar" d="M1024 645.486c0 36.571 0 73.143 0 109.714 0 29.257-21.943 58.514-51.2 58.514-36.571 0-73.143 0-102.4 0 0 0 0 0 0 0s0-7.314 0-14.629c0-21.943 0-36.571 0-58.514s-21.943-43.886-51.2-43.886c-21.943 0-43.886 14.629-43.886 43.886 0 7.314 0 21.943 0 29.257 0 14.629 0 29.257 0 43.886-43.886 0-80.457 0-109.714 0 0-7.314 0-14.629 0-21.943 0-14.629 0-36.571 0-51.2 0-21.943-21.943-43.886-51.2-43.886-21.943 0-43.886 21.943-51.2 43.886 0 21.943 0 36.571 0 58.514 0 7.314 0 7.314 0 14.629-29.257 0-65.829 0-102.4 0 0-7.314 0-7.314 0-14.629 0-21.943 0-36.571 0-58.514s-21.943-36.571-43.886-43.886c-21.943 0-43.886 14.629-51.2 36.571 0 7.314 0 14.629 0 21.943 0 21.943 0 36.571 0 58.514-36.571 0-73.143 0-102.4 0 0-7.314 0-7.314 0-14.629 0-21.943 0-36.571 0-58.514s-14.629-29.257-29.257-36.571c-14.629-7.314-36.571 0-51.2 7.314s-21.943 21.943-21.943 36.571c0 21.943 0 36.571 0 58.514-36.571 0-73.143 0-109.714 0-21.943 7.314-43.886-14.629-51.2-43.886 0-7.314 0-21.943 0-29.257 0-212.114 0-424.229 0-636.343 0-43.886 29.257-73.143 73.143-73.143 197.486 0 394.971 0 585.143 0 51.2 0 102.4 0 146.286 0 0 0 0 0 7.314 0v0h7.314c14.629 0 21.943 7.314 36.571 21.943 43.886 43.886 95.086 95.086 138.971 138.971 14.629 14.629 21.943 36.571 21.943 58.514 7.314 131.657 7.314 263.314 7.314 402.286zM980.114 623.543c14.629 0 14.629 0 14.629-14.629 0-36.571 0-73.143 0-109.714h-168.229v124.343c51.2 0 102.4 0 153.6 0zM416.914 206.629v138.971h190.171v-138.971h-190.171zM614.4 192v-138.971c-65.829 0-131.657 0-190.171 0v138.971h190.171zM409.6 352.914h-190.171v138.971h190.171v-138.971zM416.914 491.886h190.171v-138.971h-190.171v138.971zM204.8 352.914h-175.543c0 43.886 0 95.086 0 138.971h175.543v-138.971zM204.8 345.6v-138.971h-175.543c0 43.886 0 95.086 0 138.971h175.543zM219.429 345.6h190.171v-138.971h-190.171v138.971zM621.714 345.6h190.171v-138.971h-190.171v138.971zM621.714 352.914v138.971h190.171v-138.971h-190.171zM826.514 491.886h168.229c0-43.886 0-95.086 0-138.971h-168.229v138.971zM819.2 623.543v-124.343h-197.486v124.343c65.829 0 131.657 0 197.486 0zM512 623.543c36.571 0 65.829 0 102.4 0v-124.343h-197.486v124.343c36.571 0 65.829 0 95.086 0zM409.6 623.543v-124.343h-190.171v124.343c58.514 0 124.343 0 190.171 0zM43.886 623.543c51.2 0 109.714 0 160.914 0v-124.343h-175.543c0 36.571 0 73.143 0 109.714 0 14.629 7.314 14.629 14.629 14.629zM29.257 96.914c0 29.257 0 65.829 0 95.086h175.543v-138.971c-43.886 0-87.771 0-131.657 0-29.257 0-43.886 14.629-43.886 43.886zM219.429 53.029v138.971h190.171v-138.971c-43.886 0-95.086 0-138.971 0-14.629 0-36.571 0-51.2 0zM804.571 53.029c-58.514 0-124.343 0-182.857 0v138.971h190.171v-131.657c0 0 0-7.314-7.314-7.314zM980.114 235.886c-29.257 0-65.829 0-95.086 0-21.943 0-43.886-7.314-58.514-29.257v0 138.971h168.229c0-29.257 0-65.829 0-95.086 0-14.629 0-14.629-14.629-14.629zM402.286 747.886c0 36.571 0 73.143 0 109.714 0 7.314 7.314 14.629 14.629 14.629s14.629-7.314 14.629-14.629c0-14.629 0-36.571 0-51.2 0 0 0 0 0 0 0-14.629 0-36.571 0-51.2 0-7.314 0-7.314 0-14.629-7.314-7.314-14.629-7.314-21.943-7.314s-7.314 7.314-7.314 14.629zM197.486 747.886c0 14.629 0 36.571 0 51.2s0 36.571 0 51.2c0 14.629 7.314 14.629 14.629 14.629s14.629-7.314 14.629-14.629c0-36.571 0-65.829 0-102.4 0-7.314-7.314-14.629-14.629-14.629s-14.629 7.314-14.629 14.629zM599.771 747.886c0 36.571 0 73.143 0 109.714 0 7.314 7.314 14.629 14.629 14.629s14.629-7.314 14.629-14.629c0-14.629 0-36.571 0-51.2s0-36.571 0-51.2c0-7.314 0-7.314 0-14.629-7.314 0-14.629-7.314-21.943-7.314s-7.314 7.314-7.314 14.629zM804.571 806.4c0 0 0 0 0 0 0 14.629 0 36.571 0 51.2s7.314 14.629 14.629 14.629c7.314 0 14.629-7.314 14.629-14.629 0-36.571 0-73.143 0-102.4 0-7.314-7.314-21.943-14.629-21.943-14.629 0-14.629 7.314-14.629 14.629-7.314 21.943 0 36.571 0 58.514z" />
<glyph unicode="&#xe613;" glyph-name="camera" data-tags="camera" horiz-adv-x="1092" d="M773.339 816.494v97.792h-454.949v-97.792h-318.464v-834.779h1091.803v834.779h-318.391zM545.865 115.931c-156.965 0-282.039 127.342-282.039 282.039 0 156.965 127.342 282.039 282.039 282.039s282.039-125.074 282.039-282.039-127.342-282.039-282.039-282.039zM736.914 400.238c0-104.594-86.455-191.049-191.049-191.049-106.935 0-191.049 86.455-191.049 191.049s84.114 191.049 191.049 191.049 191.049-86.455 191.049-191.049z" />
<glyph unicode="&#xe614;" glyph-name="change-passcode" data-tags="change-passcode" d="M1024 638.171v-533.943c0-21.943-14.629-36.571-36.571-36.571h-826.514c-7.314 0-14.629 7.314-14.629 14.629v14.629c0 7.314 7.314 7.314 7.314 7.314h826.514c7.314 0 7.314 7.314 7.314 7.314v526.629c0 7.314-7.314 7.314-7.314 7.314h-270.629c7.314 7.314 14.629 21.943 7.314 29.257h263.314c29.257 0 43.886-14.629 43.886-36.571zM914.286 396.8c28.277 0 51.2-22.923 51.2-51.2s-22.923-51.2-51.2-51.2-51.2 22.923-51.2 51.2 22.923 51.2 51.2 51.2zM760.686 396.8c28.277 0 51.2-22.923 51.2-51.2s-22.923-51.2-51.2-51.2-51.2 22.923-51.2 51.2 22.923 51.2 51.2 51.2zM716.8 674.743c0-7.314 0-21.943-7.314-29.257h-146.286c-7.314 7.314-14.629 21.943-29.257 29.257h182.857zM475.429 747.886c21.943 21.943 36.571 43.886 65.829 65.829 14.629 14.629 36.571 14.629 51.2 0 36.571-43.886 73.143-80.457 117.029-117.029 7.314-7.314 7.314-14.629 7.314-21.943h-182.857c-21.943 21.943-43.886 43.886-58.514 73.143v0zM636.343 572.343c-21.943 21.943-43.886 51.2-73.143 73.143h146.286c-29.257-21.943-43.886-43.886-73.143-73.143zM607.086 396.8c28.277 0 51.2-22.923 51.2-51.2s-22.923-51.2-51.2-51.2-51.2 22.923-51.2 51.2 22.923 51.2 51.2 51.2zM519.314 645.486c29.257-29.257 65.829-65.829 95.086-95.086-51.2-51.2-102.4-102.4-153.6-153.6h-7.314c-29.257 0-58.514-21.943-58.514-51.2v-7.314c-51.2-51.2-109.714-109.714-168.229-168.229-58.514 58.514-109.714 117.029-160.914 168.229 102.4 102.4 204.8 204.8 314.514 307.2h138.971zM519.314 645.486h-146.286c14.629 7.314 21.943 21.943 36.571 29.257h80.457c7.314-7.314 21.943-21.943 29.257-29.257zM460.8 396.8c21.943 0 43.886-21.943 43.886-51.2s-21.943-51.2-51.2-51.2c-29.257 0-43.886 21.943-51.2 43.886 14.629 21.943 36.571 43.886 58.514 58.514zM490.057 674.743h-80.457c14.629 14.629 29.257 29.257 43.886 43.886 7.314-14.629 21.943-29.257 36.571-43.886zM453.486 396.8h7.314c-21.943-14.629-43.886-36.571-58.514-58.514v7.314c-7.314 29.257 21.943 51.2 51.2 51.2zM409.6 674.743c-14.629-7.314-21.943-21.943-36.571-29.257h-285.257c-7.314 0-7.314-7.314-7.314-7.314v-241.371c0-7.314-7.314-7.314-7.314-7.314h-14.629c-7.314 0-7.314 7.314-7.314 7.314v241.371c0 21.943 14.629 36.571 36.571 36.571h321.829zM29.257 309.029c58.514-58.514 109.714-109.714 168.229-168.229-58.514-7.314-124.343-21.943-190.171-29.257-14.629 0-7.314 7.314-7.314 7.314 14.629 65.829 21.943 131.657 29.257 190.171z" />
<glyph unicode="&#xe615;" glyph-name="add" data-tags="add" d="M986.405 485.595h-436.882v436.882c0.073 18.725-18.725 37.522-37.522 37.522s-37.595-18.798-37.595-37.595v-436.809h-436.882c-18.725 0-37.522-18.798-37.522-37.595s18.798-37.595 37.595-37.595h436.809v-436.809c0-18.798 18.798-37.595 37.595-37.595 23.479 0 37.595 18.798 37.595 37.595v436.882h436.809c23.479-0.073 37.595 18.725 37.595 37.522s-18.798 37.595-37.595 37.595z" />
<glyph unicode="&#xe616;" glyph-name="minus" data-tags="minus" d="M986.405 410.405h-948.809c-18.798 0-37.595 18.798-37.595 37.595s18.798 37.595 37.595 37.595h948.809c18.798 0 37.595-18.798 37.595-37.595s-14.117-37.595-37.595-37.595z" />
<glyph unicode="&#xe617;" glyph-name="check" data-tags="check" d="M325.851 221.111l-244.37 244.37-81.481-81.481 325.851-325.851 698.149 698.222-81.481 81.481z" />
<glyph unicode="&#xe618;" glyph-name="cancel" data-tags="cancel" horiz-adv-x="1026" d="M583.022 448l426.423 426.423c25.819 19.383 19.383 51.712 0 71.095s-51.712 19.383-71.095 0l-426.423-426.423-426.35 426.423c-19.383 19.383-51.712 19.383-71.095 0s-19.383-51.712 0-71.095l426.423-426.423-426.35-426.35c-19.383-19.383-19.383-51.712 0-71.095s51.712-19.383 71.095 0l426.35 426.35 426.423-426.423c19.383-19.383 51.712-19.383 71.095 0 25.819 19.383 19.383 51.712 0 71.095l-426.496 426.423z" />
<glyph unicode="&#xe619;" glyph-name="checklist" data-tags="checklist" d="M0 769.829c0 0 0 0 0 0 0 14.629 7.314 29.257 14.629 36.571 7.314 0 14.629 7.314 21.943 7.314s14.629-7.314 21.943-14.629 29.257-21.943 43.886-36.571c21.943 21.943 43.886 51.2 65.829 80.457 7.314 7.314 14.629 21.943 29.257 21.943 7.314 7.314 21.943 7.314 36.571 7.314s21.943-14.629 21.943-21.943c0-14.629-7.314-21.943-14.629-29.257-36.571-43.886-73.143-80.457-102.4-117.029-7.314-7.314-21.943-21.943-36.571-21.943s-29.257 14.629-36.571 29.257c-21.943 14.629-36.571 29.257-58.514 51.2 0 0-7.314 7.314-7.314 7.314zM29.257 426.057c14.629-14.629 29.257-21.943 36.571-36.571 21.943-21.943 43.886-21.943 58.514 0 29.257 36.571 65.829 73.143 102.4 109.714 29.257 21.943 43.886 43.886 21.943 58.514-14.629 21.943-36.571 7.314-51.2-7.314-29.257-36.571-65.829-65.829-87.771-95.086-14.629 14.629-36.571 29.257-58.514 43.886 0 7.314-7.314 7.314-21.943 7.314-14.629-7.314-14.629-14.629-21.943-21.943-14.629-7.314-7.314-29.257 7.314-36.571 0-7.314 7.314-14.629 14.629-21.943zM972.8 857.6h-541.257c-29.257 0-58.514-21.943-58.514-58.514v-14.629c7.314-21.943 29.257-43.886 58.514-43.886h533.943c36.571 0 58.514 14.629 58.514 43.886v21.943c7.314 29.257-21.943 51.2-51.2 51.2zM972.8 535.771h-541.257c-29.257 0-58.514-21.943-58.514-58.514v-14.629c0-29.257 21.943-58.514 58.514-58.514h533.943c29.257 0 58.514 21.943 58.514 51.2v21.943c7.314 36.571-21.943 58.514-51.2 58.514zM972.8 213.943h-541.257c-29.257 0-58.514-21.943-58.514-58.514v-21.943c0-29.257 21.943-58.514 58.514-58.514h533.943c29.257 0 58.514 21.943 58.514 58.514v21.943c7.314 36.571-21.943 58.514-51.2 58.514zM270.629 155.429c0-73.143-58.514-131.657-131.657-131.657s-138.971 58.514-138.971 131.657 58.514 131.657 131.657 131.657 138.971-58.514 138.971-131.657zM204.8 155.429c0 43.886-29.257 73.143-73.143 73.143s-73.143-29.257-73.143-73.143 29.257-73.143 73.143-73.143c43.886-7.314 73.143 29.257 73.143 73.143z" />
<glyph unicode="&#xe61a;" glyph-name="circle" data-tags="circle" d="M1024 448c0-282.77-229.23-512-512-512s-512 229.23-512 512c0 282.77 229.23 512 512 512s512-229.23 512-512z" />
<glyph unicode="&#xe61b;" glyph-name="clear" data-tags="clear" horiz-adv-x="1068" d="M667.794 597.65l-253.44-275.675c0 0 175.616-266.752 197.851-322.341l71.168 42.203c0 0-51.127 97.792-80.018 122.295 0 0-26.697 37.815 20.041 24.43 0 0 106.715-88.942 122.295-97.792l71.168 64.439c0 0-8.923 22.235-24.43 40.009l-84.626 95.671c0 0-15.579 31.159 17.774 20.041 0 0 88.942-71.168 148.919-91.136l55.589 75.557c0 0-104.448 100.059-111.177 117.833 0 0-17.774 15.579 8.923 20.041 0 0 106.715-73.362 144.53-68.901 0 0 33.353 62.245 31.159 66.706 0-2.341-286.793 133.266-335.726 166.619zM658.944 677.669c97.792-86.674 360.155-188.928 360.155-188.928 73.362-17.774 42.203-77.824 42.203-77.824-126.683-300.105-426.862-464.603-426.862-464.603-53.321-37.815-77.824 42.203-77.824 42.203-62.245 122.295-215.625 335.653-215.625 335.653l317.952 353.499zM63.122 960c4.462 0 8.923-2.194 13.312-4.462l291.255-264.558c2.194-2.194 4.462-6.656 4.462-8.923l64.439 71.168c53.321 31.159 100.059 4.462 100.059 4.462l75.557-55.589-308.955-335.653-53.394 73.362c-33.353 68.901 4.462 113.371 4.462 113.371l53.321 60.050c-4.462 0-6.656 2.194-11.118 4.462l-291.255 264.558c-6.656 6.656-6.656 17.774-2.194 24.43l44.471 48.933c6.656 2.194 11.118 4.389 15.579 4.389z" />
<glyph unicode="&#xe61c;" glyph-name="clear-passcode" data-tags="clear-passcode" d="M980.114 660.114h-768c-36.571 51.2-73.143 109.714-109.714 160.914-21.943 21.943-58.514 29.257-87.771 7.314-14.629-14.629-21.943-51.2-7.314-73.143 36.571-51.2 65.829-102.4 102.4-153.6 36.571-43.886 65.829-87.771 95.086-131.657 0 0 7.314-7.314 7.314-7.314-7.314 0-7.314-7.314-7.314-7.314-14.629-14.629-21.943-29.257-21.943-43.886 7.314-73.143 21.943-146.286 29.257-219.429 7.314-36.571 14.629-73.143 21.943-109.714 0-7.314 7.314-14.629 14.629-14.629 29.257-14.629 58.514-14.629 87.771-7.314 58.514 7.314 117.029 29.257 168.229 65.829 58.514 43.886 109.714 102.4 146.286 175.543 14.629 36.571 29.257 73.143 29.257 117.029 0 14.629-7.314 14.629-14.629 14.629-36.571-7.314-73.143-7.314-102.4-7.314-73.143 7.314-138.971 36.571-197.486 87.771-21.943 21.943-36.571 21.943-65.829 7.314 0 0 0 7.314-7.314 7.314-21.943 36.571-43.886 65.829-65.829 102.4h746.057c7.314 0 14.629-7.314 14.629-14.629v-512c0-7.314-7.314-14.629-14.629-14.629h-533.943c-7.314 0-14.629-7.314-14.629-14.629s7.314-14.629 14.629-14.629h541.257c21.943 0 43.886 21.943 43.886 43.886v512c0 21.943-21.943 43.886-43.886 43.886zM431.543 433.371c58.514-29.257 124.343-36.571 190.171-36.571 14.629 0 21.943 0 36.571 0 0-21.943-7.314-36.571-14.629-51.2 0 0-7.314 0-7.314 0-36.571 0-73.143 7.314-109.714 21.943-7.314 7.314-14.629 0-21.943-7.314 0-7.314 0-14.629 7.314-14.629 14.629-7.314 29.257-14.629 43.886-14.629 21.943-7.314 51.2-7.314 73.143-14.629 0 0 0 0 0 0-7.314-14.629-14.629-29.257-21.943-43.886 0 0-7.314 0-7.314 0-29.257 0-58.514 7.314-80.457 21.943-7.314 0-14.629 0-21.943-7.314s0-14.629 7.314-21.943c14.629-7.314 29.257-14.629 43.886-14.629 14.629-7.314 21.943-7.314 36.571-7.314 0 0 0 0 0 0-14.629-14.629-36.571-36.571-51.2-51.2 0 0-7.314 0-7.314 0-14.629 7.314-36.571 21.943-51.2 36.571-7.314 7.314-14.629 7.314-21.943 0s-7.314-14.629 0-21.943c14.629-14.629 29.257-29.257 43.886-36.571 0 0 7.314 0 7.314-7.314 0 0-7.314 0-7.314-7.314-14.629-14.629-36.571-21.943-51.2-36.571-7.314 0-7.314 0-14.629 0-21.943 21.943-36.571 51.2-43.886 80.457 0 7.314-7.314 14.629-14.629 7.314-7.314 14.629-7.314 7.314-7.314-7.314 7.314-7.314 7.314-21.943 14.629-29.257 14.629-21.943 21.943-36.571 36.571-58.514-21.943-7.314-36.571-14.629-58.514-21.943-7.314 0-7.314 0-14.629 7.314-14.629 29.257-29.257 65.829-29.257 102.4 0 7.314-7.314 7.314-7.314 14.629-7.314 0-14.629-7.314-14.629-14.629 7.314-36.571 14.629-65.829 29.257-95.086 0 0 0-7.314 7.314-7.314-21.943 0-43.886 0-58.514 7.314 0 0-7.314 7.314-7.314 7.314-14.629 51.2-21.943 124.343-36.571 190.171 0 7.314 0 7.314 7.314 7.314 58.514 43.886 124.343 80.457 190.171 124.343 0 0 7.314 0 7.314 0zM321.829 499.2c7.314 7.314 14.629 7.314 21.943 0s14.629-14.629 21.943-21.943c14.629-7.314 21.943-14.629 36.571-29.257-65.829-36.571-124.343-73.143-182.857-109.714 0 21.943-7.314 51.2-7.314 80.457 0 7.314 0 7.314 7.314 14.629 29.257 21.943 65.829 43.886 102.4 65.829zM277.943 506.514c-14.629-7.314-29.257-21.943-43.886-29.257 0 0 0 7.314-7.314 7.314-65.829 95.086-131.657 190.171-190.171 285.257 0 0 0 7.314-7.314 7.314-7.314 14.629 0 36.571 21.943 36.571 14.629 0 21.943 0 29.257-14.629 65.829-95.086 131.657-190.171 197.486-292.571 0 0 0 0 0 0zM914.286 279.771c-29.257 0-51.2 21.943-51.2 51.2s21.943 51.2 51.2 51.2c29.257 0 51.2-21.943 51.2-51.2s-21.943-51.2-51.2-51.2zM753.371 279.771c-29.257 0-51.2 21.943-51.2 51.2s21.943 51.2 51.2 51.2c29.257 0 51.2-21.943 51.2-51.2s-21.943-51.2-51.2-51.2z" />
<glyph unicode="&#xe61d;" glyph-name="clock" data-tags="clock" d="M490.642 742.4h42.642v-245.321l4.315-2.121c10.679-6.437 19.163-14.921 23.479-25.6v-2.121h174.958v-42.642h-177.079l-2.121-2.194c-8.558-17.042-27.794-27.721-46.958-27.721-29.842 0-53.321 23.479-53.321 53.321 0 23.479 12.8 42.642 34.158 49.079h2.121v245.321h-2.194zM512 896c-247.442 0-448-200.558-448-448s200.558-448 448-448 448 200.558 448 448-200.558 448-448 448zM512 960c283.721 0 512-228.279 512-512s-228.279-512-512-512-512 228.279-512 512 228.279 512 512 512z" />
<glyph unicode="&#xe61e;" glyph-name="cloud" data-tags="cloud" horiz-adv-x="1209" d="M989.403 530.359c-0.219 0-0.366 0-0.658 0-9.728 153.819-137.655 275.602-293.888 275.602-144.238 0-264.192-103.643-289.646-240.421-3.218 0.073-6.656 0.219-9.947 0.219-107.447 0-198.071-71.168-227.694-168.887-4.535 0.366-9.143 0.658-13.824 0.658-84.846 0-153.746-68.754-153.746-153.746s68.754-153.746 153.6-153.746c1.243 0 835.657 0 835.657 0 121.637 0 220.087 98.597 220.087 220.087s-98.304 220.233-219.941 220.233z" />
<glyph unicode="&#xe61f;" glyph-name="ring" data-tags="ring" d="M512 960c-285.257 0-512-226.743-512-512s226.743-512 512-512 512 226.743 512 512-226.743 512-512 512zM512-12.8c-256 0-460.8 204.8-460.8 460.8s204.8 460.8 460.8 460.8c256 0 460.8-204.8 460.8-460.8s-204.8-460.8-460.8-460.8z" />
<glyph unicode="&#xe620;" glyph-name="contact" data-tags="contact" d="M935.717 89.819h-847.433c-48.713 0-88.283 39.643-88.283 88.283v539.794c0 48.713 39.57 88.283 88.283 88.283h847.433c48.713 0 88.283-39.643 88.283-88.283v-539.794c0-48.64-39.57-88.283-88.283-88.283zM88.283 770.853c-29.184 0-52.955-23.771-52.955-52.955v-539.794c0-29.184 23.771-52.955 52.955-52.955h847.433c29.184 0 52.955 23.771 52.955 52.955v539.794c0 29.184-23.771 52.955-52.955 52.955h-847.433zM480.037 408.43c-3.218-6.437-3.584-14.702-0.951-22.089 1.536-4.242 5.12-9.655 11.41-13.239h381.879v36.571h-391.826c-0.219-0.439-0.293-0.805-0.512-1.243zM637.659 293.449c5.12-7.534 11.118-18.651 16.677-31.086h218.112v36.571h-240.128c1.755-1.829 3.803-3.584 5.339-5.486zM517.851 631.15c2.194-10.679 3.657-21.723 3.657-33.207v-3.365h350.939v36.571h-354.597zM513.463 488.521c-1.243-1.609-1.829-3.145-2.706-4.681h361.691v36.571h-343.479c-2.999-11.191-7.607-22.089-15.506-31.89zM379.611 710.802c56.466 0 105.326-45.129 105.326-112.859 0-7.534 0-15.067 0-22.601 15.067-22.601 15.067-45.129 0-64-3.73-3.73-7.534-11.264-11.264-18.798-7.534-22.601-15.067-45.129-26.331-67.73-15.067-30.062-3.803-71.461 30.062-86.528 22.601-11.264 45.129-18.798 67.73-26.331s48.933-22.601 64-41.399c7.534-11.264 15.067-26.331 18.798-41.399 0-11.264 3.73-22.601-3.73-33.865-7.534-18.798-33.865-11.264-48.933-11.264s-26.331 0-41.399 0-56.466 0-82.798 0c-22.601 0-48.933 0-71.461 0v0c-22.601 0-48.933 0-71.461 0-26.331 0-56.466 0-82.798 0-15.067 0-26.331 0-41.399 0s-41.399-7.534-48.933 11.264c-7.534 11.264-3.73 22.601-3.73 33.865 3.73 15.067 11.191 30.135 18.725 41.399 15.067 18.798 41.399 33.865 64 41.399s45.129 15.067 67.73 26.331c33.865 15.067 45.129 56.466 30.135 86.528-11.337 22.601-18.871 45.129-26.405 67.73-3.73 7.534-7.461 15.067-11.264 18.798-15.067 18.798-15.067 41.399 0 64 0 7.534 0 15.067 0 22.601 0 71.461 48.933 116.59 105.399 112.859v0z" />
<glyph unicode="&#xe621;" glyph-name="copy" data-tags="copy" d="M87.771 389.486c0 117.029 0 234.057 0 358.4 0 58.514 36.571 95.086 95.086 95.086 190.171 0 373.029 0 563.2 0 51.2 0 87.771-36.571 87.771-87.771 0-241.371 0-482.743 0-716.8 0-51.2-36.571-87.771-87.771-87.771-190.171 0-380.343 0-563.2 0-51.2 0-87.771 36.571-87.771 87.771-7.314 109.714-7.314 226.743-7.314 351.086zM124.343 389.486c0-43.886 0-87.771 0-131.657 0-73.143 0-153.6 0-226.743 0-36.571 21.943-58.514 58.514-58.514 182.857 0 373.029 0 555.886 0 21.943 0 36.571 7.314 43.886 29.257 7.314 7.314 7.314 21.943 7.314 36.571 0 153.6 0 307.2 0 453.486 0 80.457 0 160.914 0 248.686 0 36.571-21.943 58.514-51.2 58.514-190.171 0-380.343 0-563.2 0-14.629 0-29.257-7.314-43.886-21.943-7.314-7.314-7.314-21.943-7.314-43.886 0-117.029 0-226.743 0-343.771zM234.057 857.6c0 36.571 29.257 65.829 65.829 65.829 182.857 0 365.714 0 548.571 0 21.943 0 29.257-7.314 43.886-21.943 7.314-14.629 14.629-29.257 14.629-43.886 0-138.971 0-277.943 0-416.914 0-95.086 0-190.171 0-292.571 0-29.257-14.629-51.2-43.886-51.2 0 0-7.314 0-7.314 0 0-14.629 0-21.943 0-36.571 7.314 0 21.943 0 29.257 7.314 36.571 7.314 58.514 43.886 58.514 87.771 0 234.057 0 468.114 0 702.171 0 7.314 0 14.629 0 29.257-14.629 43.886-51.2 73.143-102.4 73.143-182.857 0-365.714 0-541.257 0-29.257 0-51.2-7.314-65.829-21.943-29.257-21.943-36.571-51.2-36.571-87.771 7.314 0 21.943 0 36.571 7.314-7.314 0 0 0 0 0zM680.229 660.114v0c0 7.314-7.314 7.314 0 0l-468.114 7.314c0 0-7.314 0-7.314-7.314v0c0-7.314 0-7.314 7.314-7.314l468.114 7.314c-7.314-7.314 0 0 0 0zM680.229 550.4v0c0 7.314-7.314 7.314 0 0l-468.114 7.314c-7.314 0-7.314 0-7.314-7.314v0c0-7.314 0-7.314 7.314-7.314l468.114 7.314c-7.314-7.314 0 0 0 0zM680.229 440.686v0c0 0-7.314 7.314 0 0l-468.114 7.314c-7.314 0-7.314 0-7.314-7.314v0c0-7.314 0-7.314 7.314-7.314l468.114 7.314c-7.314-7.314 0-7.314 0 0zM680.229 323.657v0c0 7.314-7.314 7.314 0 0l-468.114 7.314c-7.314 0-7.314 0-7.314-7.314v0c0-7.314 0-7.314 7.314-7.314l468.114 7.314c-7.314-7.314 0 0 0 0zM680.229 213.943v0c0 7.314-7.314 7.314 0 0l-460.8 7.314c-7.314 0-7.314 0-7.314-7.314v0c0-7.314 0-7.314 7.314-7.314l460.8 7.314c-7.314-7.314 0 0 0 0zM680.229 104.229v0c0 0-7.314 7.314 0 0l-460.8 7.314c-7.314 0-7.314 0-7.314-7.314v0c0-7.314 0-7.314 7.314-7.314l460.8 7.314c-7.314-7.314 0-7.314 0 0z" />
<glyph unicode="&#xe622;" glyph-name="dashboard" data-tags="dashboard" d="M785.481 878.080c-58.368-43.739-116.736-87.552-167.79-131.291-21.87-14.555-36.498-21.87-65.682-7.314-226.158 102.107-488.814-43.739-525.312-291.84-7.314-51.054 0-109.422 14.555-160.475 0-14.555 0-14.555-7.314-21.87-65.682 145.92-43.739 386.633 131.291 547.182 175.25 175.031 437.906 182.345 620.251 65.609zM508.27 309.029c72.923 0 138.606 65.682 138.606 138.606 0 7.314 7.314 21.87 7.314 29.184 72.923 94.866 153.234 196.974 226.158 291.84 7.314 7.314 7.314 7.314 14.555 14.555 14.555 14.555 14.555 36.498 0 51.054s-36.498 14.555-51.054 0l-7.314-7.314c-102.107-80.238-204.288-160.475-299.154-233.472-7.314-7.314-21.87-14.555-29.184-14.555-72.923 0-131.291-58.368-131.291-131.291s58.368-138.606 131.365-138.606zM449.902 447.634c0 36.498 29.184 58.368 58.368 65.682 36.498 0 58.368-29.184 65.682-58.368 0-36.498-29.184-58.368-58.368-65.682-36.498-7.241-65.682 21.943-65.682 58.368zM223.744 163.109c-14.555-14.555-21.87-29.184-36.498-36.498-14.555-14.555-29.184-21.87-43.739-36.498 204.288-211.602 547.182-189.659 722.286 0-21.87 21.87-51.054 51.054-72.923 72.923-153.307-153.088-415.963-153.088-569.125 0.073zM938.715 717.605c-51.054-72.923-109.422-138.606-160.475-211.602 0-7.314 0-14.555 0-14.555 7.314-36.498 7.314-65.682 14.555-102.107 0-7.314 0-14.555 14.555-14.555 65.682-14.555 124.050-36.498 189.659-51.054 7.314 0 7.314 0 14.555-7.314 29.257 145.847 7.387 277.138-72.85 401.189v0z" />
<glyph unicode="&#xe623;" glyph-name="database" data-tags="database" d="M512 960c95.086 0 190.171-14.629 285.257-43.886 43.886-14.629 95.086-36.571 124.343-73.143 21.943-21.943 36.571-36.571 36.571-65.829 7.314-29.257-7.314-58.514-21.943-80.457-21.943-29.257-51.2-51.2-80.457-65.829-65.829-36.571-131.657-51.2-197.486-58.514-95.086-14.629-182.857-14.629-277.943 0-73.143 7.314-146.286 29.257-204.8 58.514-36.571 14.629-65.829 36.571-87.771 65.829-29.257 43.886-29.257 87.771 0 131.657 29.257 36.571 65.829 58.514 109.714 80.457 65.829 29.257 131.657 43.886 204.8 51.2 36.571-7.314 73.143 0 109.714 0zM936.229 638.171c-29.257-36.571-73.143-58.514-117.029-80.457-58.514-21.943-124.343-36.571-197.486-51.2-95.086-7.314-197.486-7.314-292.571 14.629-65.829 14.629-131.657 29.257-182.857 65.829-36.571 21.943-73.143 51.2-80.457 102.4 0-51.2 0-95.086 0-146.286 0-14.629 7.314-29.257 7.314-36.571 14.629-29.257 43.886-51.2 73.143-73.143 43.886-29.257 95.086-43.886 153.6-58.514 80.457-21.943 160.914-29.257 248.686-21.943 87.771 0 168.229 14.629 248.686 43.886 51.2 14.629 95.086 36.571 131.657 73.143 21.943 21.943 36.571 51.2 36.571 80.457 0 43.886 0 87.771 0 131.657-14.629-14.629-21.943-29.257-29.257-43.886zM936.229 433.371c-21.943-29.257-51.2-51.2-80.457-65.829-80.457-43.886-168.229-58.514-256-65.829-65.829-7.314-131.657-7.314-190.171 0-73.143 7.314-138.971 21.943-204.8 51.2-36.571 14.629-58.514 29.257-87.771 43.886-21.943 21.943-43.886 51.2-51.2 80.457 0-36.571 0-65.829 0-95.086 0-14.629 0-29.257 0-43.886 7.314-36.571 29.257-65.829 58.514-87.771 43.886-36.571 87.771-51.2 138.971-65.829 102.4-29.257 204.8-36.571 307.2-29.257 80.457 7.314 153.6 14.629 226.743 43.886 43.886 14.629 95.086 36.571 124.343 73.143 21.943 21.943 36.571 43.886 36.571 80.457 0 43.886 0 87.771 0 131.657-7.314-21.943-14.629-43.886-21.943-51.2zM65.829 133.486c0-7.314 0-14.629 0-21.943 7.314-29.257 29.257-58.514 58.514-73.143 43.886-36.571 95.086-51.2 146.286-65.829 73.143-21.943 153.6-29.257 234.057-29.257 102.4 0 197.486 7.314 292.571 43.886 51.2 14.629 95.086 36.571 131.657 73.143 21.943 21.943 36.571 43.886 36.571 73.143 0 43.886 0 95.086 0 138.971-7.314-14.629-14.629-29.257-21.943-43.886-29.257-36.571-73.143-58.514-117.029-80.457-65.829-29.257-131.657-43.886-197.486-51.2-95.086-7.314-197.486-7.314-292.571 14.629-65.829 14.629-131.657 29.257-182.857 65.829-43.886 21.943-80.457 51.2-87.771 95.086 0-51.2 0-95.086 0-138.971z" />
<glyph unicode="&#xe624;" glyph-name="delete" data-tags="delete" horiz-adv-x="899" d="M543.744 517.047v-486.693h118.345v486.693h-118.345zM237.568 517.047v-486.693h118.345v486.693h-118.345zM64.585 601.088h770.487v-665.088h-770.487v665.088zM255.634 960h387.584v-123.465h255.561v-132.462h-898.779v132.462h255.634v123.465z" />
<glyph unicode="&#xe625;" glyph-name="deploy" data-tags="deploy" d="M387.657 111.543c-14.629 7.314-29.257 7.314-36.571 0s-21.943-7.314-29.257-14.629c-7.314-7.314-21.943-7.314-29.257 0-21.943 14.629-43.886 29.257-65.829 51.2s-36.571 43.886-58.514 65.829c-7.314 7.314-7.314 21.943 0 36.571s14.629 29.257 21.943 43.886c0 0 0 7.314 0 7.314 0 14.629 0 14.629-21.943 21.943-43.886 7.314-87.771 14.629-124.343 29.257-14.629 0-14.629 7.314-7.314 14.629 29.257 36.571 58.514 73.143 87.771 109.714 7.314 7.314 7.314 7.314 21.943 7.314 51.2 0 102.4 0 160.914 0 7.314 0 14.629 0 14.629 7.314 80.457 95.086 153.6 190.171 241.371 277.943 58.514 65.829 131.657 109.714 219.429 146.286 73.143 29.257 153.6 43.886 234.057 43.886 0 0 7.314 0 14.629 0 0-14.629 0-21.943 0-29.257-7.314-87.771-21.943-168.229-58.514-241.371-29.257-73.143-73.143-131.657-131.657-190.171-87.771-87.771-182.857-168.229-285.257-248.686 0 0-7.314-7.314-7.314-14.629 0-51.2 0-109.714 0-160.914 0-7.314 0-14.629-7.314-21.943-36.571-29.257-73.143-58.514-109.714-87.771-7.314-7.314-14.629-7.314-14.629 7.314-7.314 43.886-21.943 87.771-29.257 138.971 0 0 0 0 0 0zM716.8 565.029c43.886 0 80.457 36.571 80.457 80.457s-36.571 80.457-80.457 80.457c-43.886 0-80.457-36.571-80.457-80.457s36.571-80.457 80.457-80.457zM270.629 53.029c0 0-7.314 0-7.314 0-58.514-36.571-117.029-51.2-182.857-51.2-7.314 0-7.314 0-7.314 7.314 0 14.629 0 29.257 0 43.886 7.314 43.886 14.629 87.771 43.886 131.657 7.314 14.629 7.314 14.629-7.314 29.257-95.086-73.143-109.714-168.229-109.714-277.943 109.714 0 212.114 14.629 285.257 109.714-7.314 0-14.629 0-14.629 7.314z" />
<glyph unicode="&#xe626;" glyph-name="devices" data-tags="devices" d="M36.571 330.971c0-29.257 0-51.2 0-80.457 0-14.629 14.629-29.257 36.571-29.257 65.829 0 131.657 0 197.486 0 80.457 0 160.914 0 241.371 0 7.314 0 7.314 0 14.629 0 0-14.629 0-21.943 0-36.571-29.257 0-65.829 0-95.086 0 0-21.943 0-43.886 0-65.829 21.943 0 43.886 0 65.829 0 0-14.629 0-21.943 0-36.571-87.771 0-175.543 0-263.314 0 0 14.629 0 21.943 0 36.571 21.943 0 43.886 0 65.829 0 0 21.943 0 43.886 0 65.829-7.314 0-7.314 0-14.629 0-65.829 0-138.971 0-204.8 0-43.886 0-58.514 14.629-73.143 51.2 0 0 0 0 0 0 0 168.229 0 343.771 0 512 0 0 0 0 0 7.314 7.314 21.943 21.943 43.886 43.886 51.2 0 0 7.314 0 7.314 0 204.8 0 409.6 0 614.4 0 0 0 0 0 0 0 36.571-14.629 51.2-29.257 51.2-73.143 0-29.257 0-51.2 0-80.457 0 0 0-7.314 0-7.314-14.629 0-21.943 0-29.257 0 0 0 0 7.314 0 7.314 0 29.257 0 58.514 0 80.457s-14.629 36.571-36.571 36.571c-197.486 0-387.657 0-585.143 0-21.943 0-36.571-14.629-36.571-36.571 0-80.457 0-160.914 0-248.686 0-36.571 0-80.457 0-117.029 0-7.314 0-7.314 0-14.629v-21.943zM789.943 82.286c0 21.943 0 43.886 0 65.829-65.829 0-131.657 0-197.486 0 0 138.971 0 270.629 0 409.6 102.4 0 197.486 0 299.886 0 0-36.571 0-73.143 0-117.029 14.629 0 21.943 0 29.257 0 0 0 0 7.314 0 7.314 0 36.571 0 80.457 0 117.029 0 21.943-14.629 36.571-36.571 36.571-95.086 0-190.171 0-285.257 0-29.257 0-36.571-14.629-36.571-36.571 0-146.286 0-299.886 0-446.171 0-21.943 7.314-36.571 21.943-43.886 65.829 7.314 138.971 7.314 204.8 7.314zM1002.057 433.371h-160.914c-14.629 0-21.943-7.314-21.943-21.943v-299.886c0-14.629 7.314-21.943 21.943-21.943h160.914c14.629 0 21.943 7.314 21.943 21.943v299.886c0 14.629-7.314 21.943-21.943 21.943zM994.743 118.857h-153.6v277.943h153.6v-277.943z" />
<glyph unicode="&#xe627;" glyph-name="dial-up" data-tags="dial-up" horiz-adv-x="987" d="M470.821 960c3.95 0 7.899 0 11.849-0.073 126.245-2.048 253.513-39.936 351.89-113.225 196.901-146.725 203.776-379.392 15.287-519.826-179.566-133.778-471.771-135.241-669.184-7.973 171.813-107.374 428.251-101.083 589.897 19.383 170.715 127.195 170.715 333.458 0 460.8-170.715 127.195-447.781 127.195-618.496 0-143.433-107.081-165.961-269.605-68.315-394.24 20.626 27.063 41.911 51.2 63.342 72.485-40.302 83.383-17.993 178.322 68.974 243.054 121.783 90.697 323.657 87.552 450.779-7.387 127.342-94.793 131.877-245.248 9.874-335.945-121.783-90.697-323.657-87.552-450.999 7.387 110.373-82.213 289.499-82.213 399.872 0s110.373 215.552 0 297.765-289.499 82.213-399.872 0c-72.777-54.199-97.28-130.853-73.874-200.338 173.495 168.009 360.375 157.257 360.375 157.257 128.658-25.6 114.688-111.689 114.688-111.689l-161.938-101.083c-41.253-0.658-104.375 44.325-104.375 44.325-59.685-14.263-103.497-46.738-136.119-85.138-17.847-21.138-32.183-44.032-43.813-66.706-37.376-73.435-44.91-144.603-44.91-144.603 35.621-43.52 117.906-59.977 117.906-59.977l-11.63-157.038c-44.471-20.187-80.969-23.479-108.91-19.968-45.349 5.778-68.681 29.257-68.681 29.257-150.528 209.481 9.874 425.765 9.874 425.765 2.633 3.511 5.413 7.095 7.973 10.606-124.782 144.018-108.032 333.897 54.784 455.022 91.209 68.023 211.529 101.888 333.751 102.107z" />
<glyph unicode="&#xe628;" glyph-name="document" data-tags="document" d="M848.457 747.886v0l-219.429 212.114h-431.543c-29.257 0-51.2-21.943-51.2-51.2v-921.6c0-29.257 21.943-51.2 51.2-51.2h599.771c29.257 0 51.2 21.943 51.2 51.2v760.686zM826.514 747.886h-160.914c-21.943 0-36.571 14.629-36.571 36.571v153.6l197.486-190.171zM833.829-12.8c0-21.943-14.629-36.571-36.571-36.571h-599.771c-21.943 0-36.571 14.629-36.571 36.571v921.6c0 21.943 14.629 36.571 36.571 36.571h416.914v-160.914c0-29.257 21.943-51.2 51.2-51.2h168.229v-746.057zM570.514 842.971h-365.714v14.629h365.714v-14.629zM570.514 725.943h-365.714v21.943h365.714v-21.943zM204.8 630.857h563.2v-14.629h-563.2v14.629zM204.8 513.829h563.2v-14.629h-563.2v14.629zM204.8 404.114h563.2v-14.629h-563.2v14.629zM204.8 287.086h563.2v-14.629h-563.2v14.629zM204.8 177.371h563.2v-21.943h-563.2v21.943zM204.8 60.343h563.2v-14.629h-563.2v14.629z" />
<glyph unicode="&#xe629;" glyph-name="dots" data-tags="dots" d="M270.629 455.314c0-80.457-58.514-131.657-138.971-131.657s-131.657 51.2-131.657 131.657 58.514 131.657 131.657 131.657 138.971-58.514 138.971-131.657zM519.314 586.971c-80.457 0-138.971-58.514-138.971-131.657s58.514-131.657 138.971-131.657 124.343 51.2 124.343 131.657-58.514 131.657-124.343 131.657zM892.343 586.971c-80.457 0-131.657-51.2-131.657-131.657s51.2-131.657 131.657-131.657 131.657 51.2 131.657 131.657-58.514 131.657-131.657 131.657z" />
<glyph unicode="&#xe62a;" glyph-name="dss" data-tags="dss" horiz-adv-x="866" d="M477.257 256.658c-0.731 9.728 2.048 19.675 8.777 27.648l23.625 28.087c12.142 14.409 34.523 17.554 50.249 7.241l9.582-6.363c7.607 4.754 15.579 8.923 23.771 12.507l0.366 11.191c0.585 19.237 15.579 35.109 34.889 36.864l39.643 3.218c18.213 0 34.011-12.873 37.595-30.647l2.194-10.971c0.293-0.073 0.585-0.219 0.951-0.293 28.965 22.674 45.787 48.567 45.787 76.215v114.834c0 13.312-4.169 26.112-11.483 38.473-40.448-70.071-188.782-122.149-366.007-122.149-177.079 0-325.486 52.005-366.007 122.149-7.095-12.507-11.191-25.307-11.191-38.619v-114.834c0-88.576 168.96-160.622 377.271-160.622 34.743 0.073 68.096 2.341 99.986 6.071zM473.819 197.778c1.097 0.366 2.194 0.805 3.365 1.024l12.581 2.56c0.951 4.096 2.414 7.973 3.657 11.995-12.215-1.682-24.795-2.999-37.522-4.096 7.241-1.536 13.531-5.705 17.92-11.483zM341.065 14.848l-5.632 0.146c-15.214 0.512-27.648 12.361-28.891 27.502l-1.975 22.967c-1.243 15.214 9.143 28.891 23.991 31.89l4.315 0.878c0.658 2.56 1.463 5.193 2.341 7.68l-3.365 3.657c-10.459 10.971-10.971 28.087-1.097 39.79l14.848 17.774c9.509 11.337 27.136 13.824 39.497 5.632l2.853-1.902c2.999 1.682 5.998 3.291 9.070 4.754l0.073 3.365c0.439 13.824 10.533 25.015 23.845 27.941-14.409-0.731-28.818-1.609-43.739-1.609-177.079 0-325.486 52.005-366.007 122.149-7.022-12.288-11.191-25.161-11.191-38.473v-114.907c0-83.456 149.87-151.771 341.211-159.525-0.073 0.146-0.146 0.219-0.146 0.293zM744.448 794.112c-7.387-64.951-168.594-116.955-367.177-116.955-198.437 0-359.643 52.005-367.031 116.955-6.437-11.849-10.24-24.137-10.24-36.791v-114.761c0-88.722 168.96-160.622 377.271-160.622 208.457 0 377.49 71.899 377.49 160.622v114.761c0 12.654-3.803 25.015-10.313 36.791zM377.271 713.582c203.191 0 367.762 54.345 367.762 121.563 0 67.145-164.571 121.49-367.762 121.49-203.045 0-367.689-54.418-367.689-121.563 0-67.072 164.645-121.49 367.689-121.49zM480.11 183.003l0.073-0.439c3.072-0.878 6.071-1.829 8.997-2.926l2.121 2.048c2.56 2.414 5.559 4.169 8.704 5.486l-19.895-4.023c0.073-0.073 0.073-0.073 0-0.146zM862.647 195.072c-0.951 11.191-10.167 20.041-21.431 20.261l-22.235 0.731c-4.681 12.946-10.898 25.234-18.578 36.571l12.142 18.286c6.51 9.435 4.754 22.016-3.95 29.33l-28.014 23.625c-8.558 7.314-21.358 6.949-29.477-0.805l-15.506-14.482c-13.019 6.29-26.917 10.752-41.253 13.312l-4.315 21.358c-2.194 11.045-12.434 18.651-23.625 17.774l-36.498-3.145c-11.191-1.024-20.041-10.167-20.334-21.431l-0.731-21.723c-13.97-5.047-27.209-11.995-39.424-20.699l-18.359 12.215c-9.362 6.217-21.87 4.462-29.184-4.169l-23.625-28.16c-7.241-8.558-6.875-21.285 0.805-29.477l16.165-17.262c-5.559-12.507-9.509-25.746-11.849-39.278 9.435 2.706 20.187 1.243 27.867-5.266l17.627-14.848c11.776-9.947 14.117-26.99 5.339-39.79l-1.829-2.779c1.243-2.341 2.487-4.681 3.584-7.095l3.657-0.146c15.214-0.512 27.648-12.288 28.891-27.502l1.975-22.967c1.243-15.287-9.070-28.965-23.991-31.89l-3.803-0.731c-0.731-2.706-1.609-5.339-2.56-7.973l3.145-3.291c8.777-9.362 10.094-22.674 4.608-33.719 3.438 0.805 6.729 2.414 9.509 5.047l18.213 17.189c11.995-5.632 24.576-9.728 37.595-12.215l4.974-25.015c2.194-11.045 12.434-18.651 23.625-17.774l36.498 3.145c11.191 1.024 20.041 10.167 20.407 21.431l0.805 24.503c13.312 4.681 25.966 11.045 37.595 19.017l20.114-13.312c9.362-6.217 21.943-4.462 29.257 4.096l23.552 28.014c7.387 8.631 6.949 21.285-0.731 29.477l-16.311 17.262c5.925 12.581 10.24 25.966 12.8 39.57l22.235 4.535c10.971 2.194 18.651 12.361 17.701 23.625l-3.072 36.571zM671.086 89.307c-39.424-3.438-74.24 26.039-77.531 65.39-3.291 39.497 26.112 74.24 65.463 77.605 39.424 3.291 74.24-26.039 77.531-65.463 3.365-39.497-26.039-74.313-65.463-77.531zM538.551 155.575l-17.627 14.848c-5.413 4.608-13.385 4.315-18.578-0.512l-9.728-9.143c-8.192 4.023-16.969 6.729-25.966 8.485l-2.779 13.385c-1.317 6.949-7.826 11.776-14.848 11.191l-22.967-1.975c-7.095-0.585-12.654-6.363-12.873-13.531l-0.439-13.678c-8.85-3.145-17.189-7.534-24.795-13.019l-11.63 7.68c-5.925 3.95-13.824 2.853-18.359-2.56l-14.921-17.774c-4.535-5.413-4.389-13.385 0.512-18.505l10.167-10.898c-3.511-7.973-6.071-16.311-7.461-24.869l-14.555-2.999c-6.949-1.39-11.776-7.826-11.191-14.848l1.975-22.967c0.585-7.095 6.363-12.581 13.458-12.873l15.726-0.439c2.853-7.534 6.583-14.629 11.118-21.211l-8.777-13.239c-3.877-5.925-2.779-13.824 2.633-18.432l17.627-14.848c5.413-4.608 13.458-4.315 18.578 0.439l11.557 10.825c7.534-3.511 15.506-6.144 23.625-7.68l3.145-15.799c1.39-6.949 7.826-11.703 14.848-11.191l22.967 1.975c7.022 0.585 12.654 6.363 12.873 13.531l0.439 15.506c8.411 2.999 16.384 6.949 23.698 11.995l12.727-8.411c5.925-3.95 13.824-2.853 18.432 2.633l14.848 17.627c4.608 5.413 4.389 13.385-0.439 18.578l-10.24 10.898c3.803 7.899 6.51 16.384 8.046 24.942l13.97 2.926c6.949 1.317 11.776 7.753 11.191 14.848l-1.975 22.967c-0.585 7.095-6.363 12.581-13.531 12.8l-13.97 0.439c-2.926 8.192-6.802 15.872-11.776 23.040l7.607 11.483c4.169 5.851 3.145 13.824-2.341 18.359zM451.803 22.601c-24.795-2.121-46.811 16.457-48.859 41.253-2.121 24.869 16.457 46.738 41.253 48.859 24.869 2.121 46.811-16.384 48.859-41.253 2.121-24.869-16.384-46.811-41.253-48.859z" />
<glyph unicode="&#xe62b;" glyph-name="ebook" data-tags="ebook" horiz-adv-x="1412" d="M0 894.171c7.314 14.629 14.629 14.629 29.257 21.943 73.143 21.943 146.286 36.571 219.429 43.886 73.143 0 160.914 0 241.371-7.314 51.2-7.314 102.4-21.943 153.6-29.257 14.629 0 36.571-7.314 51.2-14.629 7.314 0 7.314 0 14.629 0 138.971 36.571 285.257 51.2 431.543 43.886 87.771-7.314 168.229-14.629 248.686-43.886 21.943-7.314 21.943-14.629 21.943-36.571 0-307.2 0-607.086 0-914.286 0-29.257-14.629-36.571-36.571-29.257-109.714 36.571-219.429 43.886-329.143 43.886s-219.429-21.943-329.143-43.886c-7.314 0-21.943 0-29.257 0-131.657 36.571-270.629 51.2-409.6 43.886-80.457-7.314-160.914-14.629-241.371-43.886-14.629 0-29.257 7.314-36.571 21.943 0 314.514 0 629.029 0 943.543zM43.886-5.486c212.114 58.514 424.229 43.886 636.343 0 0 7.314 0 14.629 0 21.943 0 168.229 0 343.771 0 512 0 109.714 0 219.429 0 329.143 0 7.314 0 14.629-7.314 14.629-95.086 21.943-190.171 36.571-285.257 36.571-109.714 0-219.429-7.314-321.829-36.571-7.314 0-14.629-7.314-14.629-21.943 0-277.943 0-563.2 0-841.143-7.314-7.314-7.314-7.314-7.314-14.629zM1367.771-5.486c0 7.314 0 14.629 0 21.943 0 277.943 0 563.2 0 841.143 0 14.629 0 14.629-14.629 21.943-65.829 21.943-131.657 29.257-197.486 36.571-138.971 7.314-270.629-7.314-409.6-36.571-14.629-7.314-14.629-14.629-14.629-21.943 0-285.257 0-563.2 0-848.457 0-7.314 0-7.314 0-14.629 212.114 43.886 424.229 58.514 636.343 0zM175.543 696.686c-14.629-7.314-21.943-14.629-21.943-29.257s14.629-21.943 29.257-21.943c36.571 7.314 65.829 14.629 95.086 14.629 65.829 0 131.657 0 197.486 0 21.943 0 43.886-7.314 65.829-14.629 14.629 0 21.943 7.314 29.257 14.629 0 14.629 0 21.943-14.629 29.257 0 0-7.314 0-7.314 0-58.514 21.943-124.343 21.943-182.857 21.943-65.829 0-124.343-7.314-190.171-14.629zM277.943 513.829c-36.571 0-65.829-7.314-102.4-14.629-14.629 0-21.943-14.629-21.943-29.257s14.629-21.943 29.257-14.629c124.343 21.943 241.371 21.943 365.714 0 14.629 0 21.943 7.314 29.257 14.629 7.314 14.629 0 21.943-14.629 29.257-7.314 0-7.314 0-14.629 7.314-58.514 7.314-109.714 7.314-168.229 7.314-36.571 0-65.829 0-102.4 0zM577.829 272.457c0 14.629-7.314 21.943-21.943 29.257-58.514 14.629-109.714 14.629-168.229 21.943-73.143 0-138.971 0-212.114-14.629-14.629-7.314-21.943-21.943-21.943-36.571s14.629-21.943 29.257-14.629c29.257 7.314 58.514 7.314 80.457 14.629 65.829 0 131.657 0 197.486 0 29.257 0 58.514-7.314 87.771-14.629 14.629-7.314 29.257 0 29.257 14.629zM855.771 499.2c-14.629 0-21.943-14.629-21.943-29.257s14.629-21.943 29.257-14.629c51.2 7.314 109.714 14.629 160.914 14.629 65.829 0 131.657 0 197.486-21.943 14.629-7.314 29.257 7.314 29.257 21.943s-7.314 21.943-21.943 21.943c-58.514 14.629-117.029 21.943-182.857 21.943-51.2 0-117.029 0-190.171-14.629zM863.086 696.686c-21.943 0-29.257-14.629-21.943-29.257 0-14.629 14.629-21.943 29.257-14.629 29.257 7.314 58.514 14.629 95.086 14.629 65.829 0 131.657 0 204.8 0 21.943 0 43.886-7.314 65.829-14.629 14.629 0 21.943 7.314 29.257 14.629 0 14.629 0 21.943-14.629 29.257 0 0-7.314 0-7.314 0-58.514 14.629-124.343 21.943-182.857 14.629-73.143 0-138.971-7.314-197.486-14.629zM1258.057 272.457c0 14.629-7.314 21.943-21.943 29.257-51.2 14.629-102.4 14.629-153.6 21.943-80.457 0-153.6 0-234.057-14.629-14.629 0-21.943-14.629-21.943-29.257s14.629-21.943 29.257-21.943c43.886 7.314 80.457 14.629 124.343 14.629 65.829 7.314 124.343 0 190.171-7.314 21.943 0 36.571-7.314 58.514-14.629 21.943 0 29.257 7.314 29.257 21.943z" />
<glyph unicode="&#xe62c;" glyph-name="edit" data-tags="edit" d="M321.829 23.771c-80.457 80.457-160.914 160.914-234.057 234.057 182.857 182.857 365.714 365.714 548.571 548.571 80.457-80.457 160.914-160.914 234.057-234.057-182.857-190.171-365.714-365.714-548.571-548.571zM906.971 601.6c-80.457 80.457-160.914 160.914-241.371 241.371 0 0 0 7.314 7.314 7.314 29.257 29.257 58.514 58.514 95.086 95.086 21.943 21.943 51.2 21.943 73.143 0 51.2-58.514 109.714-117.029 168.229-168.229 21.943-21.943 21.943-51.2 0-73.143-36.571-29.257-65.829-65.829-102.4-102.4 7.314 7.314 0 7.314 0 0zM14.629-64c87.771 14.629 182.857 29.257 270.629 43.886-80.457 80.457-160.914 160.914-241.371 241.371-14.629-87.771-29.257-175.543-43.886-270.629 0 0-7.314-14.629 14.629-14.629z" />
<glyph unicode="&#xe62d;" glyph-name="endpoint" data-tags="endpoint" d="M149.211 698.587l-50.176-50.176c-6.583-6.583-8.558-16.823-4.974-25.454s11.995-14.629 21.285-14.629h211.749c12.727 0 23.113 10.971 23.113 23.771v211.749c0 9.362-5.705 17.701-14.336 21.285-8.558 3.657-18.505 1.609-25.161-4.901l-50.176-50.249-132.974 132.974c-21.65 21.65-56.759 21.65-78.482 0l-32.841-32.914c-10.386-10.386-16.238-24.503-16.238-39.205s5.851-28.818 16.238-39.278l132.974-132.974zM327.095 286.135h-211.749c-9.362 0-17.774-5.193-21.285-13.824-3.584-8.631-1.609-18.359 4.901-24.942l50.249-50.103-132.974-132.901c-10.386-10.459-16.238-24.503-16.238-39.205s5.851-28.818 16.238-39.205l32.914-32.914c21.723-21.65 56.832-21.65 78.482 0l132.974 132.974 50.176-50.176c6.656-6.583 16.603-8.558 25.161-4.974 8.631 3.511 14.263 11.922 14.263 21.211v211.749c0 12.727-10.386 22.309-23.113 22.309zM874.715 197.339l50.176 50.176c6.583 6.583 8.485 16.165 4.974 24.722-3.511 8.631-11.922 13.824-21.285 13.824h-211.675c-12.727 0-23.113-9.582-23.113-22.309v-211.749c0-9.289 5.705-17.701 14.336-21.285 8.631-3.511 18.578-1.609 25.161 5.047l50.249 50.176 132.974-132.974c21.65-21.723 56.759-21.723 78.409 0l32.914 32.914c10.313 10.459 16.165 24.576 16.165 39.278s-5.851 28.818-16.311 39.205l-132.974 132.974zM696.905 608.402h211.675c9.362 0 17.774 5.998 21.285 14.629s1.609 18.651-4.974 25.307l-50.176 50.249 132.974 133.047c10.386 10.386 16.311 24.503 16.311 39.278s-5.851 28.818-16.311 39.205l-32.914 32.914c-21.65 21.65-56.759 21.65-78.409 0l-132.974-132.974-50.176 50.176c-6.583 6.583-16.603 8.558-25.161 4.974-8.631-3.584-14.336-11.995-14.336-21.285v-211.749c0-12.727 10.459-23.771 23.186-23.771zM512 612.791c-91.063 0-164.791-73.801-164.791-164.791s73.728-164.791 164.791-164.791 164.718 73.801 164.718 164.791-73.728 164.791-164.718 164.791zM512 330.386c-64.951 0-117.614 52.663-117.614 117.614s52.59 117.614 117.614 117.614c64.951 0 117.614-52.663 117.614-117.614s-52.663-117.614-117.614-117.614z" />
<glyph unicode="&#xe62e;" glyph-name="enterprise-app" data-tags="enterprise-app" horiz-adv-x="892" d="M885.027 431.911l-2.192 1.46c-70.219 34.379-177.736 87.772-242.103 119.223-4.389 2.196-9.509 4.389-14.629 5.853-14.629 2.924-29.987 1.464-44.616-5.853-1.464-0.732-2.196-1.464-3.656-2.192-39.5-19.018-78.996-38.768-118.491-59.246-5.12-2.196-10.973-5.12-16.093-8.049-2.192-1.46-5.121-2.192-7.313-3.656l-78.996-38.764c-2.196-1.464-4.389-2.929-5.853-4.389-2.191-2.196-3.656-5.12-2.924-8.781 0-2.192 1.464-4.389 2.924-5.849 2.196-2.196 4.389-3.656 5.853-4.389 51.201-26.335 103.129-51.933 154.331-77.531l66.561-33.646 21.21-10.241c8.777-4.389 18.286-7.313 27.063-8.045 13.897-1.464 27.063 1.464 40.96 8.045l195.29 97.281v-76.067c0-63.634 0-128.732 0-193.098 0-21.21-8.777-35.107-28.522-45.349-60.71-29.991-122.151-60.71-183.589-91.429l-5.121-2.929v57.786c0 55.589 0 110.446 0 166.031 0 8.049-0.732 13.897-2.196 19.75-2.192 12.433-8.045 22.674-16.821 32.183-6.585 7.317-14.629 13.165-24.871 18.286-8.044 3.656-15.357 8.045-23.402 11.706-53.397 27.063-108.254 53.393-162.379 81.188-19.018 9.509-38.036 19.018-57.049 27.794-2.928 1.46-5.852 2.192-8.049 2.192-1.46 0-3.656 0-5.121-0.732-2.924-2.192-5.116-6.581-5.116-12.434v-90.696c0-19.75 0-39.496 0-59.246 0-33.647 0-67.29 0-100.937 0-0.732 0-1.464 0-2.196 0-16.821 3.656-31.451 12.433-43.152 0-0.732 0-0.732 0-0.732 7.313-10.973 17.554-19.749 31.451-26.33l74.607-38.036c25.599-13.165 52.661-26.331 78.264-39.496 28.522-13.897 55.585-27.794 78.991-39.5l4.389-2.192c2.196-1.464 3.661-2.196 5.853-1.464v-0.732c2.924 0 5.853 0.732 8.777 2.196l128.732 64.366c28.526 13.897 56.321 27.794 84.844 42.424 29.258 14.626 43.887 38.764 43.887 70.947 0 70.951 0 142.629 0 212.844v81.924c0 0.728 0 10.236-7.316 13.897zM838.219 415.085c-62.174-30.719-124.344-61.438-185.786-92.161-6.58-3.656-13.165-5.121-19.746-5.121-2.196 0-4.389 0-6.585 0.732-4.388 0.732-8.044 1.464-12.433 3.661l-35.839 17.554-176.276 88.5 41.692 20.482 5.12 2.924c22.674 11.705 45.349 22.674 68.022 33.647 20.482 10.969 40.96 21.21 61.442 30.719 5.849 2.924 10.969 5.853 16.821 8.777 5.853 2.929 11.701 4.389 16.821 3.656 5.121 0 10.241-0.728 14.63-2.924 1.464 0 2.924-0.732 4.389-1.464l65.83-32.183c48.272-24.134 100.937-49.736 141.897-70.214l6.581-3.656-6.581-2.929zM615.129 31.817v-49.737l-5.849 2.924c-9.509 5.121-19.749 10.241-31.451 16.094-10.241 4.389-19.75 9.509-29.991 14.629l-3.656 2.193c-19.75 10.241-38.768 19.75-51.933 26.331l-24.866 12.437c-2.929 1.46-6.585 2.924-9.509 5.116h-0.732c-5.121 2.929-9.509 5.121-14.629 7.317-14.629 7.313-28.526 13.897-43.152 21.21-20.482 10.24-29.991 25.601-29.259 47.544 0 52.661 0 106.058 0 157.986v63.634l75.339-37.299c5.848-2.929 11.701-5.853 17.554-8.782 17.554-8.777 35.839-18.286 53.393-27.063 20.482-10.236 40.96-20.477 61.441-30.718 3.656-1.464 7.313-3.656 10.969-5.121 17.554-8.777 26.331-23.406 26.331-43.152-0.001-58.518-0.001-117.031-0.001-175.544zM442.514 848.089c0-25.599 0-50.464 0-76.067 24.871 0 47.544 0 73.875 0 0 27.063 0 51.201 0 76.067-26.331 0-49.005 0-73.875 0zM441.781 593.554c26.335 0 50.469 0 75.339 0 0 26.331 0 49.736 0 76.071-27.063 0-50.469 0-75.339 0 0-27.067 0-51.201 0-76.071zM351.817 848.089c-26.331 0-50.469 0-76.067 0 0-25.599 0-49.004 0-75.335 27.794 0 51.929 0 76.067 0 0 27.063 0 50.469 0 75.335zM351.085 669.625c-25.599 0-49.736 0-75.335 0 0-26.335 0-49.741 0-76.071 27.063 0 50.469 0 75.335 0 0 26.331 0 50.469 0 76.071zM351.085 444.344v0.732c0 16.089 0 31.451 0 46.808-26.331 0-49.736 0-74.603 0 0-27.794 0-51.196 0-75.335 24.134 0 46.076 0 69.482 0-2.192 2.192-4.389 5.853-5.121 9.509-2.192 10.242 5.121 16.090 10.241 18.286zM276.482 238.080c19.013 0 38.031 0 56.317 0 0 19.75 0 39.496 0 59.246v16.821c-19.018 0-37.304 0-56.317 0 0-27.794 0-51.201 0-76.067zM186.514 848.089c-25.599 0-50.469 0-75.335 0 0-26.331 0-50.464 0-76.067 25.599 0 49.004 0 75.335 0 0 27.795 0 51.201 0 76.067zM186.514 491.156c-26.331 0-50.469 0-74.603 0 0-26.335 0-50.469 0-75.339 25.599 0 49.004 0 74.603 0 0 26.33 0 50.469 0 75.339zM186.514 313.415c-26.331 0-50.469 0-74.603 0 0-27.063 0-51.929 0-76.067 25.599 0 49.004 0 74.603 0 0 27.063 0 50.469 0 76.067zM185.781 670.353c-26.331 0-49.736 0-74.603 0 0-26.331 0-51.196 0-77.531 26.331 0 49.736 0 74.603 0 0 26.335 0 51.933 0 77.531zM186.514 135.679c-26.331 0-50.469 0-74.603 0 0-26.331 0-50.469 0-75.335 25.599 0 49.004 0 74.603 0 0 25.599 0 50.469 0 75.335zM612.937-59.611c-27.063 13.897-58.514 29.986-92.161 46.812-54.857 0-110.446 0-168.228 0 0 31.451 0 62.17 0 92.161-13.165 14.625-19.75 32.911-19.75 55.585 0 0.732 0 1.464 0 2.196-19.746 0-37.304 0-57.049 0 0-49.736 0-98.014 0-148.482-11.704-1.46-20.481-3.656-29.258-3.656-55.589-0.732-111.906 0.732-167.496-0.732-23.406-0.728-32.183 6.585-31.451 30.723 1.46 50.469 0.728 100.206 0.728 150.674 0 234.786 0.732 468.844-0.728 703.634-0.733 35.839 10.236 43.152 43.884 43.152 149.21-2.192 298.424-1.46 447.634-1.46 11.705 0 24.139 0 38.768 0 0-117.764 0-234.79 0-351.817 16.089 8.044 32.911 10.236 48.272 5.849v375.223c-5.121 14.629-18.286 19.75-40.96 19.75-179.933-1.464-359.861-0.732-539.794-0.732-41.692 0-45.349-3.656-45.349-44.616 0-155.063 0-309.393 0-464.456 0-155.794 0-311.589 0-468.116 0-41.691 4.389-46.080 47.544-46.080 193.093 0 385.46 0 578.558 0-3.656 0-5.853 0.732-9.509 2.924l-3.656 1.464z" />
<glyph unicode="&#xe62f;" glyph-name="enterprise-wipe" data-tags="enterprise-wipe" d="M1009.371 638.171c-7.314 14.629-21.943 21.943-36.571 21.943s-29.257-7.314-43.886-14.629c-80.457-80.457-160.914-160.914-241.371-241.371 0 0 0 0 0-7.314v0 0c-36.571 7.314-43.886 14.629-58.514 7.314-7.314 0-7.314-7.314-14.629-7.314-14.629-7.314-21.943-14.629-36.571-21.943-51.2-21.943-109.714-29.257-175.543-21.943-36.571 0-65.829 7.314-102.4 21.943 0 0-7.314 0-7.314 0s0 0-7.314 0c0 0-7.314-7.314-7.314-14.629 0-14.629 0-29.257 0-51.2s0-43.886 7.314-73.143c0 0 0 0 0-7.314 7.314-36.571 21.943-65.829 43.886-102.4 7.314-7.314 14.629-14.629 14.629-29.257 14.629-21.943 36.571-43.886 58.514-65.829s43.886-43.886 73.143-58.514c21.943-14.629 51.2-29.257 80.457-36.571 29.257 7.314 51.2 0 73.143 7.314 7.314 0 14.629 0 14.629 0 7.314 0 7.314 7.314 14.629 14.629 7.314 21.943 14.629 43.886 21.943 65.829l87.771 241.371c7.314 14.629 0 36.571-7.314 43.886l-7.314 7.314h7.314c0 0 0 0 0 0 36.571 36.571 80.457 80.457 117.029 117.029l43.886 43.886c29.257 29.257 58.514 58.514 87.771 87.771 14.629 21.943 14.629 51.2 0 73.143zM702.171 162.743l-21.943-65.829c-14.629-43.886-29.257-80.457-43.886-124.343 0 0 0-7.314-7.314-7.314v0c0 0 0 0-7.314 0 0 0-7.314 0-7.314 0-14.629 0-29.257 0-43.886 7.314h-7.314v7.314c0 0 0 0 0 0 21.943 29.257 36.571 58.514 43.886 87.771 0 7.314 0 14.629 0 14.629s-7.314 7.314-7.314 7.314c-7.314 0-14.629 0-14.629-7.314-7.314-14.629-14.629-36.571-21.943-51.2s-14.629-29.257-29.257-43.886c0 0 0 0 0 0s-7.314 0-7.314 0c0 0 0 0 0 0 0 7.314-14.629 14.629-29.257 21.943l-14.629 7.314 14.629 14.629c7.314 7.314 21.943 21.943 29.257 36.571 7.314 7.314 7.314 14.629 14.629 21.943v0c0 7.314 0 7.314 0 14.629 0 0 0 7.314-7.314 7.314s-14.629 0-21.943-7.314c-7.314-7.314-7.314-14.629-14.629-14.629 0 0 0 0 0 0 14.629-7.314 0-21.943-7.314-29.257s-14.629-14.629-21.943-21.943c-7.314 0-7.314-7.314-14.629 0s-21.943 14.629-29.257 29.257l-14.629 14.629c0 0 0 0 0 0v0h7.314c0 0 0 0 0 0l14.629 7.314c7.314 0 7.314 7.314 14.629 7.314 7.314 7.314 14.629 7.314 21.943 14.629 7.314 0 7.314 7.314 7.314 7.314s0 7.314 0 7.314c0 0 0 0 0 7.314-7.314 7.314-14.629 7.314-21.943 0-14.629-7.314-36.571-21.943-58.514-29.257v0c0 0 0 0-7.314 0v0c-14.629 21.943-21.943 36.571-29.257 51.2l-7.314 14.629h14.629c7.314 0 14.629 0 21.943 0 14.629 0 29.257 7.314 51.2 7.314 7.314 0 7.314 0 7.314 7.314 0 0 0 7.314 0 7.314s0 7.314-7.314 7.314c0 0-7.314 0-14.629 0-29.257-7.314-51.2-14.629-80.457-7.314 0 0-7.314 0-7.314 0v0c-7.314 21.943-14.629 36.571-14.629 43.886 0 0 0 7.314 0 7.314v14.629h7.314c7.314 0 14.629 0 14.629 0v0c7.314 0 7.314 0 14.629 0 14.629 0 21.943 0 36.571 0s29.257 0 36.571 7.314h7.314c0 0 0 0 0 0s0 7.314 0 7.314c0 0 0 0 0 7.314 0 0 0 0 0 0s0 0 0 0-7.314 0-14.629 0c-21.943-7.314-51.2-7.314-73.143-7.314-14.629 0-21.943 0-36.571 7.314 0 0-7.314 0-7.314 0v0 0c0 7.314 0 14.629 0 21.943s0 14.629 0 29.257v7.314l14.629-7.314c7.314 0 14.629-7.314 21.943-7.314 65.829-14.629 131.657-14.629 190.171 0 0 0 7.314 0 7.314 0 14.629-14.629 21.943-21.943 36.571-36.571s29.257-29.257 51.2-51.2c7.314-7.314 7.314-7.314 14.629-14.629 21.943-21.943 43.886-43.886 58.514-58.514 0 7.314 0 7.314 0 0zM724.114 213.943l-7.314-21.943-87.771 95.086-58.514 58.514 7.314 7.314c7.314 0 21.943 7.314 29.257 7.314s7.314 7.314 14.629 7.314v0 0h7.314c7.314 7.314 14.629 7.314 21.943 0h7.314c29.257-21.943 51.2-51.2 80.457-80.457 0-7.314 7.314-7.314 7.314-14.629-7.314-14.629-14.629-36.571-21.943-58.514zM987.429 594.286c0-7.314 0-7.314 0 0v0l-256-256-36.571 36.571c0 0 0 0 0 0 80.457 80.457 160.914 160.914 248.686 241.371 7.314 7.314 21.943 14.629 29.257 7.314 7.314 0 14.629-7.314 14.629-14.629 7.314 0 7.314-14.629 0-14.629zM519.314 594.286c-29.257 0-51.2 0-80.457 0 0 21.943 0 51.2 0 73.143 21.943 0 51.2 0 73.143 0 7.314-21.943 7.314-51.2 7.314-73.143zM519.314 850.286c0-21.943 0-51.2 0-73.143-29.257 0-51.2 0-73.143 0 0 29.257 0 51.2 0 73.143 21.943 0 43.886 0 73.143 0zM446.171 418.743c0 21.943 0 43.886 0 73.143 21.943 0 43.886 0 73.143 0 0-29.257 0-51.2 0-73.143-29.257 0-51.2 0-73.143 0zM351.086 769.829c-21.943 0-51.2 0-73.143 0 0 29.257 0 51.2 0 73.143 21.943 0 51.2 0 73.143 0 0-21.943 0-43.886 0-73.143zM351.086 594.286c-21.943 0-51.2 0-73.143 0 0 29.257 0 51.2 0 73.143 21.943 0 51.2 0 73.143 0 0-21.943 0-51.2 0-73.143zM277.943 418.743c0 21.943 0 43.886 0 73.143 21.943 0 51.2 0 73.143 0 0-21.943 0-51.2 0-73.143-21.943 0-51.2 0-73.143 0zM277.943 235.886c0 14.629 0 21.943 0 36.571 0-7.314 0-21.943 0-36.571 7.314 7.314 7.314 0 0 0 0 0 0 0 0 0zM182.857 769.829c-29.257 0-51.2 0-73.143 0 0 29.257 0 51.2 0 73.143 21.943 0 51.2 0 73.143 0 0-21.943 0-43.886 0-73.143zM182.857 418.743c-21.943 0-51.2 0-73.143 0 0 21.943 0 51.2 0 73.143 21.943 0 51.2 0 73.143 0 0-29.257 0-51.2 0-73.143zM182.857 235.886c-21.943 0-51.2 0-73.143 0 0 21.943 0 51.2 0 73.143 21.943 0 51.2 0 73.143 0 0-21.943 0-43.886 0-73.143zM182.857 594.286c-21.943 0-51.2 0-73.143 0 0 29.257 0 51.2 0 80.457 21.943 0 51.2 0 73.143 0 0-29.257 0-58.514 0-80.457zM182.857 60.343c-21.943 0-51.2 0-73.143 0 0 21.943 0 51.2 0 73.143 21.943 0 51.2 0 73.143 0 0-21.943 0-51.2 0-73.143zM555.886-56.686c14.629-7.314 21.943-7.314 29.257-7.314-182.857 0-358.4 0-541.257 0-36.571 0-43.886 7.314-43.886 43.886 0 160.914 0 314.514 0 468.114s0 307.2 0 460.8c0 43.886 0 51.2 43.886 51.2 182.857 0 358.4 0 541.257 0 21.943 0 36.571-7.314 43.886-21.943v-526.629c-7.314 0-14.629-7.314-21.943-7.314-7.314-7.314-21.943-14.629-29.257-14.629 0 175.543 0 351.086 0 526.629-14.629 0-29.257 0-36.571 0-146.286 0-299.886 0-446.171 0-36.571 0-43.886-7.314-43.886-43.886 0-234.057 0-468.114 0-702.171 0-51.2 0-102.4 0-153.6 0-21.943 7.314-29.257 29.257-29.257 58.514 0 109.714 0 168.229 0 7.314 0 14.629 0 29.257 0 0 51.2 0 102.4 0 146.286 14.629 0 36.571 0 51.2 0 7.314-14.629 14.629-21.943 29.257-36.571 0-36.571 0-73.143 0-109.714 36.571 0 80.457 0 117.029 0 21.943-21.943 51.2-36.571 80.457-43.886z" />
<glyph unicode="&#xe630;" glyph-name="error" data-tags="error" d="M317.659 766.537l-124.197-124.123 194.414-194.341-194.341-194.414 124.123-124.123 194.414 194.414 194.414-194.414 124.123 124.123-194.414 194.414 194.414 194.341-124.197 124.123-194.341-194.414-194.414 194.414zM512 960c282.697 0 512-229.303 512-512 0-282.843-229.303-512-512-512-282.77 0-512 229.157-512 512 0 282.697 229.23 512 512 512z" />
<glyph unicode="&#xe631;" glyph-name="export" data-tags="export" d="M1024 396.8v-299.886c-14.629-80.457-65.829-131.657-138.971-153.6-7.314 0-7.314 0-14.629-7.314h-716.8c-80.457 14.629-124.343 58.514-153.6 138.971 7.314 7.314 0 7.314 0 14.629v716.8c14.629 65.829 51.2 117.029 117.029 146.286 14.629 0 21.943 0 29.257 7.314h343.771v-73.143h-307.2c0 0 0 0 0 0-36.571 0-65.829-14.629-87.771-43.886-14.629-21.943-21.943-43.886-21.943-65.829v-475.429c0-58.514 0-117.029 0-175.543 0-43.886 14.629-73.143 43.886-95.086 14.629-14.629 36.571-21.943 65.829-21.943h512c43.886 0 95.086 0 138.971 0 29.257 0 58.514 7.314 80.457 29.257s29.257 43.886 29.257 80.457c0 58.514 0 109.714 0 168.229v102.4h80.457zM592.457 696.686c-124.343-51.2-212.114-138.971-277.943-248.686-36.571-73.143-65.829-146.286-80.457-234.057 0-7.314 0-21.943 0-36.571v-36.571h73.143l7.314 29.257c0 14.629 0 21.943 7.314 36.571 0 14.629 7.314 36.571 7.314 51.2 43.886 168.229 146.286 292.571 299.886 365.714 73.143 29.257 153.6 51.2 248.686 58.514l-102.4-102.4 51.2-51.2 197.486 204.8-190.171 197.486-58.514-51.2 102.4-109.714c-14.629 0-29.257 0-43.886-7.314-87.771-7.314-168.229-29.257-241.371-65.829z" />
<glyph unicode="&#xe632;" glyph-name="factory-reset" data-tags="factory-reset" d="M377.295 698.21v-119.568c0-15.441 12.597-28.038 28.038-28.038h4.876c15.441 0 28.038 12.597 28.038 28.038v154.311c23.162 9.651 47.848 16.254 73.651 19.403v-220.749c0-15.441 12.597-28.038 28.038-28.038h4.876c15.441 0 28.038 12.597 28.038 28.038v221.765c25.702-2.337 50.387-8.127 73.651-16.965v-157.765c0-15.441 12.597-28.038 28.038-28.038h4.876c15.441 0 28.038 12.597 28.038 28.038v125.765c71.416-49.473 118.857-131.149 121.6-223.898h19.2c8.94 0 16.152-7.314 16.152-16.152v-29.765c0-8.94-7.314-16.152-16.152-16.152h-606.375c-8.94 0-16.152 7.314-16.152 16.152v29.663c0 8.94 7.314 16.152 16.152 16.152h22.349c2.54 89.092 46.425 167.822 113.067 217.803zM770.235 310.654c8.635 21.13 18.489 27.124 18.489 27.124s3.352 1.321 29.765 1.321 23.162 27.124 23.162 27.124v34.438c0 0-72.838 0-140.292 0-4.571-156.851-148.216-162.844-156.851-162.133-165.384 14.527-155.429 162.133-155.429 162.133h-141.003c0 0 0.711-29.765 2.032-40.33s9.244-23.873 33.117-21.841c23.873 2.032 32.406-17.168 32.406-17.168s2.641-5.994 12.597-27.124c9.956-21.13 4.673-31.086 4.673-31.086s-3.352-7.924-17.879-21.13c-14.527-13.206-2.641-28.444-2.641-28.444s39.721-41.041 50.997-49.676c11.276-8.635 24.483-5.283 24.483-5.283s11.276 7.924 16.559 15.238c13.206 18.184 31.695 7.314 31.695 7.314s14.527-4.673 33.117-12.597c18.489-7.924 19.2-17.879 19.2-17.879s3.352-3.962 2.641-24.483c-0.711-20.521 17.879-25.194 17.879-25.194s47.644-1.321 70.095 0.711c22.451 2.032 23.162 13.206 22.451 33.117-0.711 19.81 12.597 29.765 12.597 29.765s2.641-1.321 27.835 11.276c25.194 12.597 37.079 5.283 37.079 5.283s0 0 16.559-15.238 31.797-3.352 31.797-3.352 35.759 35.759 50.286 49.676 3.962 29.765-6.603 37.689c-18.489 20.521-11.886 35.048-11.886 35.048s2.438 4.571 11.073 25.702zM776.229 877.003c-106.768 60.14-220.952 79.137-340.724 53.232-160-34.641-274.59-128.813-347.733-277.435-17.067 50.083-33.321 97.93-49.778 146.489-13.105-4.47-24.686-8.33-37.587-12.698 23.467-70.705 46.73-140.495 70.502-211.81 70.502 23.67 139.784 47.035 210.286 70.705-4.47 13.41-8.432 25.702-12.597 38.4-47.34-15.848-93.359-31.39-140.698-47.238 61.765 151.060 240.356 286.476 461.308 260.775 222.476-25.803 392.025-215.162 394.667-440.076 2.641-229.181-161.524-419.048-392.432-450.743-107.378-14.73-208.152 8.635-299.073 67.962-121.6 79.34-188.343 193.321-205.308 337.676-13.308-0.914-25.803-1.829-38.298-2.743 7.924-165.384 132.063-376.178 372.927-433.879 237.003-56.787 479.898 71.010 568.787 298.057 88.381 225.625-3.352 484.673-214.248 603.327z" />
<glyph unicode="&#xe633;" glyph-name="file-browse" data-tags="file-browse" d="M660.285 258.415c3.294 6.54 6.585 6.54 6.585 9.813 32.919 65.402 36.214 130.804 0 192.933-36.21 65.401-95.469 98.102-171.187 98.102-108.638 0-194.232-91.562-190.942-202.745 6.585-134.072 151.437-222.362 273.246-160.232 9.875 3.272 19.75 9.813 26.335 9.813 9.875 0 16.46-13.080 23.044-19.621 23.044-22.893 46.090-45.782 69.134-68.674 19.754-22.889 52.674-16.348 62.549 9.813 6.585 16.348 3.294 29.428-9.875 42.509-29.63 29.431-59.26 58.86-88.889 88.289zM502.268 219.178c-82.303-3.272-148.143 62.13-151.437 143.879-3.29 81.75 62.549 147.152 148.143 150.424 82.303 3.268 148.147-62.133 151.437-143.884 0-81.75-65.839-147.152-148.143-150.42zM1006.062 625.040c-10.594 12.183-25.741 18.067-43.701 19.621 0 17.286-1.076 34.156 0.227 50.871 2.629 33.772-32.701 62.593-67.29 62.402-172.237-0.964-344.482-0.366-516.724-0.647-9.16-0.014-14.906 2.513-19.616 9.477-8.978 13.286-18.201 26.447-27.911 39.281-14.013 18.523-31.951 28.014-58.13 27.491-67.933-1.362-135.919-0.456-203.884-0.46-34.344-0.004-57.062-15.41-67.504-45.701-0.286-0.835-1.009-1.54-1.532-2.308 0-239.206 0-478.411 0-717.612 7.978-11.036 14.678-23.152 24.29-32.799 9.897-9.937 23.965-13.719 39.063-13.71 264.973 0.080 529.942 0.027 794.915 0.102 31.17 0.009 57.852 22.303 63.455 51.58 9.549 49.875 19.339 99.71 29.29 149.518 22.929 114.732 46.005 229.437 69.085 344.147 0.952 4.729 2.585 9.34 3.902 14.005 0 5.535 0 11.067 0 16.603-5.889 9.446-10.634 19.741-17.938 28.138zM40.884 301.562c0 155.25 0 310.5 0.013 465.755 0 3.991-0.085 8.009 0.335 11.973 1.107 10.469 5.639 14.629 16.982 15.803 2.969 0.308 5.987 0.308 8.982 0.308 70.326 0.018 140.652-0.121 210.973 0.192 8.398 0.036 13.906-2.447 18.174-8.759 6.344-9.379 12.763-18.727 19.527-27.853 5.442-7.344 11.053-14.638 17.273-21.424 11.116-12.124 24.986-17.888 42.875-17.852 171.647 0.339 343.295 0.201 514.942 0.201 27.808 0 30.781-2.777 30.786-28.665 0-15.285 0-30.572 0-46.888-5.723 0-10.295 0-14.871 0-243.638 0-487.281 0-730.919 0-44.273 0-66.697-18.496-74.437-59.045-11.598-60.772-24.286-121.366-36.491-182.040-7.040-35.018-14.041-70.040-21.089-105.054-0.348-1.732-0.982-3.411-3.054-5.072 0 2.804 0 5.612 0 8.419zM971.21 530.286c-25.013-125-50.143-249.977-75.299-374.955-4.92-24.442-9.951-48.87-15.236-73.245-5.13-23.647-5.304-23.621-32.197-23.621-258.991 0-517.978 0-776.969 0.004-3.665 0-7.339-0.121-10.996 0.067-14.214 0.731-20.625 6.531-18.482 19.486 4.263 25.786 9.665 51.415 14.808 77.071 24.379 121.675 48.875 243.33 73.219 365.009 4.893 24.447 9.299 48.974 13.951 73.46 1.384 7.281 6.282 11.415 14.035 12.384 4.264 0.532 8.648 0.353 12.978 0.353 130.995 0.018 261.99 0.013 392.982 0.013 130.995 0 261.991 0 392.982-0.009 3.335 0 6.687 0.112 9.991-0.206 10.285-0.982 16.317-6.362 14.951-15.902-2.871-20.058-6.737-40.004-10.719-59.911z" />
<glyph unicode="&#xe634;" glyph-name="filter" data-tags="filter" d="M387.657 448h256v-343.771l-256-168.229v512zM0 960v-87.771l387.657-387.657h256l380.343 387.657v87.771h-1024z" />
<glyph unicode="&#xe635;" glyph-name="message" data-tags="message" d="M100.279 960h823.442c55.442 0 100.279-42.642 100.279-96.037v-541.842c0-51.2-44.837-93.842-100.279-93.842h-232.521l-452.242-292.279 104.521 290.158h-243.2c-55.442 0-100.279 44.763-100.279 93.842v541.842c0 55.515 44.837 98.158 100.279 98.158z" />
<glyph unicode="&#xe636;" glyph-name="forum" data-tags="forum" d="M117.029 316.343c-14.629 0-21.943 0-36.571 0-43.886 14.629-80.457 58.514-80.457 102.4 0 109.714 0 226.743 0 336.457 0 58.514 43.886 109.714 102.4 109.714 190.171 0 380.343 0 570.514 0 58.514 0 102.4-43.886 102.4-102.4 0-117.029 0-226.743 0-343.771 0-58.514-43.886-102.4-102.4-102.4-102.4 0-204.8 0-307.2 0-14.629 0-21.943 0-36.571-14.629-51.2-51.2-95.086-95.086-146.286-146.286-21.943-21.943-43.886-21.943-58.514 0-7.314 7.314-7.314 21.943-7.314 29.257 0 43.886 0 87.771 0 131.657zM855.771 111.543c-36.571 36.571-73.143 73.143-109.714 109.714-7.314 7.314-14.629 14.629-21.943 14.629-80.457 0-168.229 0-248.686 0-14.629 0-29.257 0-36.571 14.629-14.629 14.629-21.943 14.629-36.571 14.629-7.314 0-14.629 0-21.943 0-14.629-7.314-21.943-7.314-14.629-21.943 14.629-43.886 58.514-73.143 109.714-73.143 73.143 0 146.286 0 219.429 0 7.314 0 14.629 0 21.943-7.314 36.571-36.571 73.143-73.143 109.714-109.714 21.943-21.943 43.886-21.943 73.143-14.629 21.943 7.314 36.571 29.257 36.571 58.514 0 21.943 0 43.886 0 58.514 0 7.314 0 14.629 7.314 14.629 51.2 21.943 80.457 58.514 80.457 117.029 0 87.771 0 175.543 0 256 0 51.2-29.257 95.086-80.457 109.714-36.571 7.314-73.143 0-109.714 7.314 0-21.943 0-36.571 0-51.2 0-7.314 0-7.314 0-14.629 7.314 0 7.314 0 14.629 0 21.943 0 36.571 0 58.514 0 29.257 0 51.2-21.943 51.2-51.2 0-87.771 0-168.229 0-256 0-29.257-21.943-51.2-51.2-51.2-14.629 0-21.943 0-36.571 0 0-43.886 0-87.771 0-131.657-7.314 7.314-7.314 7.314-14.629 7.314z" />
<glyph unicode="&#xe637;" glyph-name="gadget" data-tags="gadget" d="M982.528 552.448l-65.024 7.607c-8.923 33.938-22.309 66.341-39.351 96.768l40.009 50.615c14.848 18.725 13.239 45.422-3.438 62.318l-78.043 78.043c-16.823 16.823-43.593 18.359-62.318 3.511l-49.152-38.985c-31.89 18.725-65.975 32.987-101.742 42.642l-7.387 63.561c-2.779 23.698-22.821 41.472-46.519 41.472h-110.665c-23.771 0-43.739-17.774-46.592-41.472l-7.387-63.561c-36.718-9.801-71.68-24.722-104.375-44.105l-50.981 40.375c-18.725 14.921-45.422 13.166-62.318-3.511l-78.117-78.263c-16.896-16.823-18.359-43.52-3.584-62.245l42.642-53.906c-17.042-30.793-29.989-63.561-38.546-97.719l-68.242-7.826c-23.698-2.706-41.472-22.747-41.472-46.519v-110.665c0-23.698 17.847-43.739 41.472-46.519l71.973-8.338c9.070-31.159 21.65-61.147 37.669-89.307l-45.495-57.344c-14.775-18.725-13.166-45.349 3.584-62.245l78.19-78.263c16.896-16.823 43.593-18.359 62.318-3.584l56.905 44.983c29.257-16.823 60.416-29.989 92.818-39.278l8.558-73.216c2.779-23.698 22.821-41.472 46.519-41.472h110.665c23.698 0 43.813 17.847 46.519 41.618l8.192 70.656c34.889 9.070 68.169 22.528 99.547 40.229l55.077-43.666c18.725-14.775 45.495-13.093 62.318 3.511l78.19 78.263c16.896 16.823 18.359 43.52 3.511 62.245l-42.862 54.345c17.774 30.793 31.671 63.561 40.887 97.938l65.975 7.607c23.845 2.779 41.545 22.821 41.545 46.519v110.592c0.073 23.771-17.627 43.813-41.472 46.592zM512 109.787c-186.807 0-338.213 151.479-338.213 338.213s151.406 338.286 338.213 338.286c186.807 0 338.213-151.479 338.213-338.213 0-186.88-151.406-338.286-338.213-338.286zM300.251 295.643c-16.384-16.384-16.384-42.935 0-59.319 8.192-8.192 18.944-12.288 29.696-12.288s21.504 4.096 29.696 12.288l137.728 137.801-59.319 59.246-137.801-137.728zM644.608 550.985l59.977 31.013 31.451 60.709-29.257 29.257-60.709-31.451-31.086-59.977-73.070-72.997 29.623-29.623 73.070 73.070zM657.701 391.753l-5.632 0.512c-10.24 0-19.968-2.121-28.965-5.486l-172.251 172.325c3.365 9.070 5.413 18.725 5.413 28.965l-0.512 5.632c-2.999 43.666-38.912 78.263-83.383 78.263-12.946 0-25.015-3.145-35.986-8.411l55.735-55.735c2.926-2.926 4.974-6.363 6.29-10.094 3.657-9.874 1.682-21.504-6.29-29.477-5.413-5.413-12.581-8.119-19.749-8.119-3.291 0-6.583 0.731-9.728 1.902-3.657 1.39-7.095 3.365-10.094 6.29l-55.662 55.735c-5.193-10.971-8.411-23.040-8.411-35.986 0-44.398 34.597-80.384 78.263-83.383l5.632-0.585c10.24 0 19.968 2.121 28.965 5.413l172.178-172.251c-3.218-8.923-5.339-18.651-5.339-28.891l0.585-5.632c2.926-43.666 38.912-78.263 83.31-78.263 12.946 0 25.088 3.145 35.986 8.411l-55.735 55.735c-2.926 2.926-4.974 6.437-6.363 10.021-3.657 9.874-1.682 21.504 6.363 29.477 5.413 5.486 12.581 8.192 19.749 8.192 3.291 0 6.583-0.731 9.728-1.902 3.657-1.39 7.168-3.365 10.021-6.29l55.735-55.735c5.266 10.971 8.411 23.040 8.411 35.986 0.073 44.398-34.597 80.384-78.263 83.383z" />
<glyph unicode="&#xe638;" glyph-name="grid" data-tags="grid" d="M0 361.326h421.669v-404.919h-421.669v404.919zM0 939.52h421.669v-404.919h-421.669v404.919zM602.331 361.326h421.669v-404.919h-421.669v404.919zM602.331 939.52h421.669v-404.919h-421.669v404.919z" />
<glyph unicode="&#xe639;" glyph-name="hdd" data-tags="hdd" horiz-adv-x="764" d="M189.221 209.408c-57.563-0.073-104.155-36.206-104.155-80.823s46.665-80.823 104.229-80.823c3.584 0 7.095 0.585 10.606 0.805v-0.731l6.29 1.317c6.363 0.805 12.581 2.121 18.505 3.73l370.249 75.703-370.834 75.849c-5.778 1.609-11.63 2.853-17.774 3.657l-6.437 1.39v-0.878c-3.511 0.293-7.022 0.805-10.679 0.805zM381.806 678.766c60.928 0 110.373-49.371 110.373-110.373s-49.445-110.373-110.373-110.373-110.373 49.371-110.373 110.373c0 61.074 49.445 110.373 110.373 110.373zM381.806 844.361c-152.357 0-275.968-123.538-275.968-275.968s123.538-275.968 275.968-275.968c152.357 0 275.968 123.538 275.968 275.968s-123.611 275.968-275.968 275.968zM0 960h763.611v-1024h-763.611v1024z" />
<glyph unicode="&#xe63a;" glyph-name="home" data-tags="home" d="M877.714 426.057c7.314-7.314 14.629-21.943 14.629-29.257 0-58.514 0-117.029 0-175.543s0-117.029 0-175.543c0-14.629-7.314-21.943-21.943-21.943-80.457 0-160.914 0-241.371 0-14.629 0-21.943 7.314-21.943 21.943 0 80.457 0 160.914 0 241.371 0 14.629-7.314 14.629-21.943 14.629-51.2 0-95.086 0-146.286 0-14.629 0-21.943 0-21.943-21.943 0-80.457 0-160.914 0-241.371 0-14.629-7.314-21.943-21.943-21.943-80.457 0-160.914 0-241.371 0-14.629 0-21.943 7.314-21.943 21.943 0 117.029 0 234.057 0 358.4 0 14.629 7.314 21.943 14.629 36.571 117.029 87.771 234.057 182.857 351.086 270.629 14.629 7.314 21.943 7.314 36.571 0 109.714-95.086 226.743-190.171 343.771-277.943zM694.857 747.886c0 0 0 7.314 0 0-29.257 21.943-51.2 36.571-73.143 58.514l-36.571 29.257c-14.629 7.314-21.943 21.943-36.571 29.257-29.257 21.943-43.886 21.943-73.143 0-146.286-117.029-292.571-234.057-446.171-343.771-14.629-14.629-21.943-21.943-29.257-36.571 0-7.314 0-14.629 0-21.943 0 0 0 0 0 0 7.314-29.257 51.2-51.2 80.457-21.943 138.971 102.4 270.629 204.8 409.6 314.514 21.943 14.629 29.257 14.629 51.2 0 43.886-43.886 95.086-80.457 146.286-124.343 87.771-65.829 168.229-131.657 256-197.486 29.257-21.943 65.829-14.629 80.457 21.943 0 0 0 0 0 0 0 7.314 0 14.629 0 21.943-7.314 14.629-14.629 29.257-29.257 36.571-29.257 21.943-65.829 51.2-95.086 73.143l-21.943 21.943c-14.629 7.314-21.943 21.943-36.571 29.257 0 0 0 0 0 0l-146.286 109.714z" />
<glyph unicode="&#xe63b;" glyph-name="hour-glass" data-tags="hour-glass" d="M804.571-12.8c-190.171 0-387.657 0-577.829 0 0 29.257 0 58.514 7.314 87.771 7.314 102.4 58.514 182.857 131.657 248.686 21.943 21.943 43.886 36.571 65.829 58.514 43.886 43.886 43.886 87.771 7.314 124.343-29.257 29.257-58.514 58.514-87.771 87.771-95.086 80.457-131.657 182.857-131.657 307.2 0 0 0 7.314 0 7.314 190.171 0 387.657 0 577.829 0 0-29.257 0-58.514-7.314-87.771-14.629-102.4-73.143-182.857-146.286-256-14.629-14.629-36.571-36.571-58.514-58.514-36.571-43.886-36.571-80.457 0-124.343 36.571-21.943 65.829-51.2 95.086-80.457 87.771-80.457 124.343-182.857 124.343-307.2 0 0 0 0 0-7.314zM241.371 886.857c7.314-29.257 7.314-58.514 14.629-87.771 14.629-87.771 65.829-146.286 131.657-204.8 21.943-21.943 51.2-43.886 73.143-65.829 14.629-14.629 29.257-36.571 29.257-65.829 7.314-36.571-14.629-65.829-43.886-95.086-21.943-29.257-43.886-43.886-73.143-65.829-51.2-43.886-95.086-102.4-109.714-168.229-7.314-36.571-14.629-73.143-14.629-117.029 175.543 0 351.086 0 533.943 0 0 58.514-14.629 117.029-43.886 175.543-29.257 51.2-73.143 95.086-117.029 131.657-21.943 21.943-43.886 43.886-65.829 65.829-14.629 14.629-21.943 36.571-21.943 58.514 0 36.571 14.629 58.514 36.571 87.771 29.257 29.257 51.2 51.2 80.457 73.143 58.514 58.514 102.4 124.343 117.029 204.8 7.314 21.943 7.314 43.886 7.314 73.143-175.543 0-351.086 0-533.943 0zM329.143 674.743c21.943-21.943 43.886-51.2 73.143-73.143 21.943-21.943 43.886-36.571 65.829-65.829 14.629-14.629 29.257-43.886 29.257-65.829 14.629-73.143 7.314-138.971 7.314-212.114 0-29.257-7.314-51.2-29.257-73.143-21.943-29.257-43.886-51.2-73.143-73.143-29.257-29.257-58.514-58.514-95.086-80.457 131.657 0 263.314 0 394.971 0-7.314 7.314-14.629 7.314-14.629 14.629-51.2 43.886-109.714 87.771-153.6 146.286-7.314 14.629-14.629 36.571-14.629 58.514 0 51.2 0 109.714 0 160.914 0 65.829 21.943 109.714 73.143 153.6 29.257 29.257 51.2 58.514 80.457 87.771 14.629 14.629 21.943 21.943 29.257 36.571-131.657 0-256 0-387.657 0 7.314-7.314 14.629-14.629 14.629-14.629zM870.4 945.371v0c0 7.314-7.314 14.629-14.629 14.629h-680.229c-14.629 0-21.943-7.314-21.943-14.629v0c0-7.314 7.314-14.629 14.629-14.629h672.914c21.943-7.314 29.257 0 29.257 14.629zM870.4-49.371v0c0 7.314-7.314 14.629-14.629 14.629h-680.229c-7.314 0-14.629-7.314-14.629-14.629v0c0-7.314 7.314-14.629 14.629-14.629h672.914c14.629 0 21.943 7.314 21.943 14.629z" />
<glyph unicode="&#xe63c;" glyph-name="import" data-tags="import" d="M1024 396.8v-299.886c-14.629-80.457-65.829-131.657-138.971-153.6-7.314 0-7.314 0-14.629-7.314h-716.8c-80.457 14.629-124.343 58.514-153.6 138.971 7.314 7.314 0 7.314 0 14.629v716.8c14.629 65.829 51.2 117.029 117.029 146.286 14.629 0 21.943 0 29.257 7.314h343.771v-73.143h-307.2c0 0 0 0 0 0-36.571 0-65.829-14.629-87.771-43.886-14.629-21.943-21.943-43.886-21.943-65.829v-475.429c0-58.514 0-117.029 0-175.543 0-43.886 14.629-73.143 43.886-95.086 14.629-14.629 36.571-21.943 65.829-21.943h512c43.886 0 95.086 0 138.971 0 29.257 0 58.514 7.314 80.457 29.257s29.257 43.886 29.257 80.457c0 58.514 0 109.714 0 168.229v102.4h80.457zM402.286 323.657c0-14.629 0-29.257-7.314-43.886l-102.4 109.714-58.514-51.2 197.486-197.486 197.486 197.486-58.514 51.2-95.086-102.4c7.314 95.086 29.257 175.543 58.514 248.686 73.143 153.6 190.171 256 365.714 299.886 14.629 7.314 36.571 7.314 51.2 7.314s21.943 0 36.571 7.314h29.257v73.143h-36.571c-14.629 0-21.943 0-36.571 0-80.457-7.314-160.914-36.571-226.743-73.143-109.714-65.829-197.486-153.6-248.686-277.943-36.571-73.143-58.514-153.6-65.829-248.686z" />
<glyph unicode="&#xe63d;" glyph-name="incoming-call" data-tags="incoming-call" horiz-adv-x="1267" d="M710.583 376.101c13.166 0 26.405-5.266 36.937-15.799l129.317-129.317c21.138-21.138 21.138-52.809 0-71.241l-52.809-50.176-203.191 203.191 50.176 52.809c13.166 5.266 26.331 10.533 39.57 10.533zM905.874 597.797c47.47 0 84.48-36.937 84.48-84.48s-36.937-84.48-84.48-84.48c-47.47 0-84.48 36.937-84.48 84.48s36.937 84.48 84.48 84.48zM79.872 800.987l203.191-203.191c-71.241-71.241-39.57-147.749 29.038-213.723l71.241-71.241c65.975-65.975 142.482-100.279 213.723-29.038l203.191-203.191-7.899-7.899c-126.683-126.683-319.342-71.241-472.357 84.48l-166.254 166.181c-153.088 153.088-211.090 345.673-84.48 472.357l10.606 5.266zM1127.497 869.595c76.507 0 139.849-63.342 139.849-139.849s-63.269-139.849-139.849-139.849-139.849 63.342-139.849 139.849c0 76.507 63.342 139.849 139.849 139.849zM190.683 893.367c13.166 0 26.405-5.266 36.937-15.799l129.317-129.317c21.138-21.138 21.138-52.809 0-71.241l-50.103-50.176-203.191 203.191 52.809 50.176c7.826 7.899 21.065 13.166 34.231 13.166z" />
</font>
</defs>
</svg>
